<?xml version="1.0" encoding="utf-8"?>
<!-- Generator: Adobe Illustrator 27.7.0, SVG Export Plug-In . SVG Version: 6.00 Build 0)  -->
<svg version="1.1" id="main" xmlns="http://www.w3.org/2000/svg" xmlns:xlink="http://www.w3.org/1999/xlink" x="0px" y="0px"
	 viewBox="0 0 130 136" style="enable-background:new 0 0 130 136;" xml:space="preserve">
<style type="text/css">
	.st0{fill:#FFF062;}
	.st1{fill:#3F283C;}
	.st2{fill:#EA5529;}
	.st3{fill:none;stroke:#FFC800;stroke-width:4.252;stroke-linecap:round;stroke-linejoin:round;stroke-miterlimit:10;}
</style>
<g>
	<g>
		<g>
			<path class="st0" d="M37.8,129.1c-1.1,3.4-3.7,4.7-6.7,4.7c-0.9,0-2-0.1-3.1-0.5c-3.5-0.9-6.1-3.5-6.1-7c0-0.8,0.1-1.7,0.5-2.6
				L53,45c2.2-5.7,6.5-8,11.9-8c5.3,0,9.7,2.4,11.9,8l30.7,79.1c0.5,0.9,0.6,1.8,0.6,2.6c0,3.3-2.7,5.8-6.3,6.7
				c-1.1,0.2-2.1,0.4-3.1,0.4c-3.1,0-5.7-1.4-6.9-4.7L84,107.6H45.6L37.8,129.1z M79.3,93.4L69.3,66c-1.7-4.5-3.2-9.5-4.4-14.7
				c-1.3,5.2-2.6,9.9-4.3,14.7L50.3,93.4H79.3z"/>
			<path class="st1" d="M98.8,135.9c-4.2,0-7.4-2.2-8.8-6.1l-7.3-20.1H47.1l-7.3,20.1c-1.2,4-4.3,6.1-8.7,6.1
				c-1.3,0-2.5-0.2-3.7-0.6c-4.6-1.3-7.6-4.8-7.6-9c0-1.2,0.2-2.2,0.6-3.3L51,44.3c2.4-6.1,7.2-9.4,13.9-9.4s11.5,3.2,13.9,9.4
				l30.7,79c0.5,1.1,0.8,2.1,0.8,3.4c0,4.1-3.1,7.5-7.8,8.8C101.1,135.8,99.9,135.9,98.8,135.9z M84.1,105.5c0.9,0,1.7,0.6,2,1.4
				l7.8,21.5c0.8,2.3,2.4,3.3,4.9,3.3c0.8,0,1.7-0.1,2.6-0.3c2.1-0.6,4.7-2.2,4.7-4.7c0-0.7-0.1-1.1-0.4-1.7c0-0.1-0.1-0.1-0.1-0.2
				l-30.7-79c-1.8-4.4-5.1-6.7-10-6.7s-8.2,2.2-10,6.7l-30.6,78.7c-0.2,0.6-0.3,1.2-0.3,1.8c0,2.7,2.4,4.4,4.6,4.9h0.1
				c0.7,0.2,1.5,0.4,2.4,0.4c2.5,0,4-1,4.7-3.2l7.8-21.6c0.3-0.8,1.1-1.4,2-1.4h38.5V105.5z M50.3,95.5c-0.7,0-1.3-0.3-1.7-0.9
				s-0.5-1.3-0.2-1.9l10.3-27.4c1.4-4,2.7-8.4,4.2-14.4c0.2-1,1.1-1.6,2.1-1.6c1,0,1.8,0.7,2,1.6c1.1,4.7,2.5,9.6,4.3,14.4l10,27.4
				c0.2,0.6,0.1,1.4-0.3,1.9c-0.4,0.6-1,0.9-1.7,0.9H50.3z M76.3,91.3l-9-24.6c-0.9-2.4-1.7-4.8-2.4-7.2c-0.7,2.6-1.5,4.9-2.3,7.2
				l-9.2,24.6H76.3z"/>
		</g>
	</g>
	<path class="st2" d="M31.8,24.4c-3.1,0-4.7-1.8-4.7-4.7v-3.2c0-0.7,0.3-1.5,1.9-1.5c1.5,0,1.9,0.9,1.9,1.5v2.8
		c0,0.8,0.1,1.5,1.8,1.5h14.3c0.6,0,1.5,0.2,1.5,1.8c0,1.5-0.9,1.9-1.5,1.9C46.8,24.4,31.8,24.4,31.8,24.4z M29.5,7.1
		c-0.7,0-1.5-0.3-1.5-1.9s0.9-1.9,1.5-1.9H46c0.5,0,1.5,0.2,1.5,1.9c0,1.5-0.9,1.9-1.5,1.9H29.5z"/>
	<path class="st2" d="M64.4,24.4c-2.9,0-4.5-1.7-4.5-4.5v-2.3c0-0.7,0.3-1.4,1.9-1.4c0.4,0,1.8,0,1.8,1.4v1.9c0,1,0.4,1.3,1.3,1.3
		h8.6c0.6,0,1.5,0.2,1.5,1.8c0,1.5-0.9,1.9-1.5,1.9C73.5,24.4,64.4,24.4,64.4,24.4z M55,24.3c-0.9,0-2.3-0.4-2.3-1.5
		c0-0.2,0-0.4,0.1-0.7l2.2-8.1c0.3-1.2,0.4-1.8,0.4-2.8V7.5h-1c-0.4,0-0.8-0.1-1-0.3c-0.3-0.3-0.5-0.8-0.5-1.4
		c0-1.5,0.9-1.9,1.5-1.9h1.1V2.5c0-0.5,0.2-1,0.7-1.3c0.3-0.2,0.9-0.2,1.2-0.2c1.4,0,1.8,0.9,1.8,1.5v1.3h15.2
		c0.6,0,1.5,0.2,1.5,1.9c0,1.5-0.9,1.9-1.5,1.9H59.2v3.9c0,1.4-0.1,1.9-0.5,3.3l-2.4,8.6C56.1,23.9,55.7,24.3,55,24.3z M61.8,13.4
		c-0.5,0-1.5-0.2-1.5-1.9c0-1.4,0.9-1.8,1.5-1.8h11.8c0.6,0,1.5,0.2,1.5,1.8c0,1.5-0.9,1.9-1.5,1.9H61.8z"/>
	<path class="st2" d="M99.3,24.4c-1.1,0-2-0.4-2.8-1.2l-4.6-5l-5.6,5.1c-0.8,0.8-1.8,1.1-2.9,1.1h-2.4c-0.9,0-1.4-0.7-1.4-1.9
		c0-0.6,0-1.8,1.4-1.8h2.2c0.3,0,0.7-0.1,0.9-0.3l10.8-9.8H81.4c-0.7,0-1.5-0.3-1.5-1.9s0.9-1.9,1.5-1.9h17.3c1.1,0,2.1,0.9,2.1,2
		v0.6c0,0.6-0.2,1.1-0.7,1.4l-5.4,4.9l4.2,4.6c0.2,0.2,0.4,0.3,0.8,0.3h1.8c1.5,0,1.5,1.2,1.5,1.8c0,0.5,0,1.9-1.5,1.9
		C101.4,24.4,99.3,24.4,99.3,24.4z M83.3,5.4c-0.5,0-1.5-0.2-1.5-1.8c0-1.4,0.9-1.8,1.5-1.8h16.2c0.6,0,1.5,0.2,1.5,1.8
		s-1,1.8-1.5,1.8H83.3z"/>
</g>
<g>
	<line class="st3" x1="110.6" y1="27.6" x2="124.8" y2="3.3"/>
	<line class="st3" x1="19.3" y1="27.2" x2="5.3" y2="2.8"/>
</g>
</svg>
