<?xml version="1.0" encoding="utf-8"?>
<!-- Generator: Adobe Illustrator 27.7.0, SVG Export Plug-In . SVG Version: 6.00 Build 0)  -->
<svg version="1.1" id="下地" xmlns="http://www.w3.org/2000/svg" xmlns:xlink="http://www.w3.org/1999/xlink" x="0px" y="0px"
	 viewBox="0 0 1125 2436" style="enable-background:new 0 0 1125 2436;" xml:space="preserve">
<style type="text/css">
	.st0{clip-path:url(#SVGID_00000076581497501002315280000003814779990859018922_);}
	.st1{fill:#C8E8FA;}
	.st2{fill:#FFF062;}
	.st3{clip-path:url(#SVGID_00000076581497501002315280000003814779990859018922_);fill:#FFF062;}
	.st4{clip-path:url(#SVGID_00000076581497501002315280000003814779990859018922_);fill:#C8E8FA;}
	.st5{fill:#FFFFFF;}
</style>
<g>
	<defs>
		<rect id="SVGID_1_" y="0.7" width="1125" height="2434.6"/>
	</defs>
	<clipPath id="SVGID_00000012471956204254236620000007468573966808166804_">
		<use xlink:href="#SVGID_1_"  style="overflow:visible;"/>
	</clipPath>
	<g style="clip-path:url(#SVGID_00000012471956204254236620000007468573966808166804_);">
		<path class="st1" d="M2308.3,3815c-5.2-5.3-12.1-8.8-19.1-11.2c-23.8-8.3-72.6-8.8-94.1-22c-6-3.7-11.3-8.4-16.6-13.1
			c-26.7-23.4-64.5-50.5-102.2-45.3c-1.7,0.2-4.2,1-5.5-0.6l-9.2-20.8c-14.2-45.1-99.8-431.1-142.6-540.7
			c-42.8-109.5-70.9-172.4-86-264.3c-14.7-89.4-9.8-232.1-24.1-397.2c-8.7-100-27.6-198.9-53.7-295.8c-19.1-71-37.5-168.7-105-210.2
			c-119.8-73.6-263.3-83.5-391.2-133.2l0.7-0.8c-50.9-22.3-80.9-58.4-79.7-142.5c1.1-84.1,120.3-151.6,161-351.3
			c14.9-73.4,3.2-254-132.2-333.1c-171.5-100.3-416.8-42-501,75.6c-41.2,57.7-70.3,122.3-70.1,173c0,29.4,16.8,33.9,16.8,47.3
			c0,13.5-60.4,136-73.8,154c-13.4,18-0.1,23.3,15.1,31.7c15.2,8.5,37.7,9,38.7,29.3c0.8,15.7-7.5,25.6,14.7,30
			c12,2.4,40.4,2.6,50,11.1c8.4,7.5,11.4,29.9-2.4,33.2c-10,2.4-30.9,2.8-41.2,2.6c-2.9,0-6.6-0.1-8.7,2.3c-3.2,3.7,3,12.6,4.7,15.5
			c2.6,4.3,5.1,8.6,7.4,13c4.8,9.3,8.7,19.3,9.8,29.8c0.1,1.2,0.2,2.3,0.3,3.5c1,22.8-5.8,64.1,45.6,60.9
			c44.1-2.9,100.8-27.4,128.4-16c7.1,2.9,11.2,10.3,11.2,17.9c0,15.4,0,30.7,0,46.1c0,7.7,0,15.4,0,23c0,9.5,2.6,17.8-6.6,24.1
			c-12.1,8.3-26.8,13.4-40.3,18.7c-128.7,50.7-273.5,60.1-394.3,134.3c-67.5,41.5-85.9,139.3-105,210.3
			c-26.1,97-45,195.8-53.7,295.8c-14.3,165.1-9.4,307.8-24,397.2c-14.9,90.5-42.3,152.9-84,259.3l-4,5
			C99.9,3271,14.4,3656.9,0.2,3702l-9.2,20.8c-1.3,1.6-3.8,0.8-5.5,0.6c-37.7-5.1-75.5,22-102.2,45.3c-5.3,4.6-10.6,9.4-16.6,13.1
			c-21.4,13.3-70.3,13.7-94.1,22c-7,2.5-13.9,5.9-19.2,11.2c-5.2,5.3-8.6,12.8-7.9,20.2c1.4,12.8,14.7,21.5,27.5,22.7
			c12.8,1.2,47.1-4.9,59.6-7.9c9.1-2.1,18.4-3.6,27.7-4.4c8.8-0.8,18.2-0.8,25.7,3.9c10.8,6.8,2.1,27.2-3.2,36.9
			c-13.7,23.1-29.7,54.8-42.5,78.4c-10.7,19.7-21.2,39.5-31.4,59.5c-5.8,11.6-12.5,24.3-11.2,37.7c0.7,7.1,6.3,16.4,12.6,19.8
			c18.1,9.9,39.9-6.3,48.8-22.1c21.6-38.3,40.1-78.6,59.2-118.2l-34.6,138.1c-4.1,16.3-19.1,57.3,6.5,63.9
			c30.3,7.9,42.9-25.8,50.2-48.4c9.4-29.6,14.8-60.2,22.4-90.2c4-15.7,8-31.3,12-47c0,0-19.3,145.8-18.5,160.2
			c0.5,8.3,4.3,16.3,10.9,21.5c6.7,5.3,16.2,7.9,24.3,4.5c13.8-5.7,19-26.3,22-39.6c2.5-11.1,4-22.4,5-33.8
			c2.3-26.1,7.5-51.7,10.2-77.8c0.6-6.2,9.8-20.2,9.8-20.2c-1,28.6-1.3,57.1-1.5,85.7c-0.1,16.9,0.2,33.8,2.2,50.5
			c0.6,5.5,2,10.8,5.7,14.3c12.9,12.4,32.8,10.2,38.3-8c8.8-29.2,15.1-154.2,15.1-154.2c62.8-146.6,33.1-188.4,33.1-188.4
			c21.4-99.2,278.8-525.1,285.8-631.1c7.6-114.9,75.2-332.6,75.2-332.6s25.2,78.9,24,221.2c-1.4,142.2-53.2,278.1-74.6,468
			c-21.3,189.8-31.5,345.8-18.9,514.8c15.2,204.6,57.2,623.4,94.2,720.3c37.1,96.9,30.2,277.8,40.7,386.1
			c10.4,108.4,26.7,704.6,46.6,874.4c7.5,64.4,26,136.4,12.8,201.2c-13.3,65.3-76.7,92.2-131.2,118.3c-9,4.3-18,8.9-26.5,14.2
			c-12.5,7.7-24,17-35.5,26.2c-37.2,30-74.5,59.9-111.7,89.9c-11,8.9-22.3,17.9-35.7,22.6c-19.3,6.8-40.4,3.8-60.8,2.4
			c-24.8-1.7-52.3-0.2-68.2,21.9c-6.7,9.4-9.5,21.2-8.2,32.7c5.2,43.4,56,44.2,89.8,46.8c96.7,7.6,197.2,1.8,289.7-26.9
			c59-18.3,139.2-5.2,197.3,14c23,7.6,85.2,4.1,109.6,4.1c18.4,0,37-0.5,55.4-0.5c79.9,0,11.7-237.3-2.1-322.4
			c-13.7-85.1,87.8-673.3,78.7-875.8c-9.2-202.5-51.3-213.2-47.8-332.1c0.5-18.4,1.9-36.8,3.3-55.2c2.2-28.7,4.7-57.4,7.2-86.1
			c3.2-36.7,6.6-73.4,10-110.1c3.9-42.4,7.9-84.8,11.8-127.2c4.2-45.8,8.4-91.6,12.5-137.4c4.2-46.9,8.2-93.8,12.1-140.7
			c3.8-45.7,7.4-91.3,10.7-137c3.1-42.1,5.9-84.3,8.2-126.5c2-36.3,3.8-72.6,4.7-109c0.9-32.1-8.1-91.8,39-95.6h2.1
			c45.1,0,38.1,68.4,38.9,98.4c0.9,36.4,2.6,67.9,4.7,104.3c2.4,42.4,5.2,84.7,8.3,127.1c3.3,46,7,91.9,10.8,137.9
			c3.9,47.2,8,94.4,12.2,141.6c4.1,46.1,8.3,92.2,12.5,138.3c3.9,42.6,7.9,85.2,11.8,127.9c3.4,36.8,6.8,73.6,10,110.4
			c2.5,28.6,5,57.3,7.2,86c1.3,17.7,2.7,35.4,3.2,53.1c3.5,118.9-38.6,129.6-47.8,332.1c-9.2,202.5,92.4,790.8,78.6,875.8
			c-13.7,85.1-82,322.4-2,322.4c18.5,0,37,0.5,55.4,0.5c24.5,0,86.6,3.5,109.6-4.1c58.1-19.1,138.3-32.3,197.3-14
			c92.4,28.7,192.9,34.5,289.7,26.9c33.7-2.6,84.6-3.4,89.8-46.8c1.4-11.4-1.4-23.3-8.2-32.7c-15.9-22.1-43.4-23.7-68.2-21.9
			c-20.4,1.4-41.5,4.4-60.8-2.4c-13.4-4.7-24.7-13.7-35.7-22.6c-37.2-30-74.5-59.9-111.7-89.9c-11.5-9.2-23-18.5-35.5-26.2
			c-8.5-5.3-17.5-9.8-26.5-14.2c-54.6-26.1-117.9-53.1-131.2-118.3c-13.2-64.8,5.3-136.8,12.8-201.2c19.9-169.8,36.2-766,46.6-874.4
			c10.5-108.4,3.6-289.3,40.7-386.1c37-96.9,79-515.8,94.2-720.3c12.6-169,2.4-324.9-18.9-514.8c-21.3-189.9-73.2-325.8-74.6-468
			c-1.3-142.3,24-221.2,24-221.2s67.6,217.7,75.2,332.6c7,106,264.4,531.9,285.8,631.1c0,0-29.7,41.8,33.1,188.4
			c0,0,6.3,125,15.1,154.2c5.4,18.1,25.4,20.3,38.3,8c3.6-3.5,5-8.9,5.7-14.3c2-16.8,2.3-33.7,2.2-50.5c-0.2-28.5-0.5-57.1-1.5-85.7
			c0,0,9.2,14.1,9.8,20.2c2.6,26,7.8,51.6,10.1,77.6c1,11.4,2.5,22.8,5,34c3,13.4,8.2,34,22,39.7c8.1,3.3,17.6,0.8,24.3-4.5
			c6.6-5.2,10.5-13.2,10.9-21.5c0.9-14.3-18.5-160.2-18.5-160.2c4,15.7,8,31.3,12,47c7.6,30,13,60.7,22.4,90.2
			c7.2,22.6,19.9,56.3,50.2,48.4c25.6-6.6,10.6-47.6,6.5-63.9l-34.6-138.1c19.1,39.6,37.6,79.9,59.2,118.2
			c8.9,15.8,30.6,32,48.8,22.1c6.3-3.4,11.9-12.7,12.6-19.8c1.2-13.4-5.4-26.1-11.2-37.7c-10.1-20-20.7-39.8-31.4-59.5
			c-12.8-23.6-28.8-55.3-42.5-78.4c-5.2-9.8-14-30.2-3.2-36.9c7.5-4.7,16.9-4.7,25.7-3.9c9.3,0.8,18.6,2.3,27.7,4.4
			c12.6,2.9,46.8,9.1,59.6,7.9c12.8-1.2,26.2-9.9,27.5-22.7C2317,3827.7,2313.6,3820.3,2308.3,3815z M1081.3,1464.8
			c-1.4,3.2-3,6.3-4.6,9.1c-4.6,7.9-8.1,15.2-10.6,22.2c-1.1,3-1.9,6.3-2.8,9.8c-1.7,6.6-3.4,13.4-7.1,19.9
			c-1.9,3.4-4.4,6.6-7.3,9.5c-2.9,2.8-6.2,5.5-10.3,8.1c-8.6,5.6-18.3,8.5-28.1,8.5h0c-22.1,0-38.8-12.9-41.5-32.2
			c-0.1-0.7-0.2-1.3-0.2-2c-0.6-7.4,0.2-14.5,1.1-21.3c0.9-6.9,1.7-13.4,0.8-19.5c-0.8-5.5-1.9-11-3-16.2
			c-2.7-13.1-5.4-26.4-3.6-40.8c2.6-20.4,13.8-37.9,30-47c9.5-5.3,20.4-8.1,31.6-8.1c19.1,0,38.4,8.9,50.4,23.3
			c4.1,5,7.4,10.6,9.6,16.8C1094.3,1428.8,1086.6,1452.7,1081.3,1464.8z M1154.3,1372.3c19.5-16.9,32.5-41.3,34.4-67.2
			c0.6-8.9-6.1-16.6-14.9-17.2c-8.8-0.6-16.6,6.1-17.2,14.9c-1.8,25.5-20.7,49.7-45,57.6c-3.1,1-5.7,2.9-7.6,5.2
			c-17.2-4.2-42.8-14.2-67.6-24.3c-22.8-11.9-28.3-55.5-22.1-81.6c2-8.7-3.3-17.3-12-19.4c-8.7-2.1-17.3,3.3-19.4,12
			c-4.5,19-4.8,44.7,1.8,67.9c-26-10.4-49.3-18.9-65.5-21.5c-20.4-3.4-34.3-0.6-46.5,1.8c-16.5,3.2-30.9,6-64.3-7.1
			c8.3-9,17.7-17,28-23.7c7.5-4.8,9.6-14.8,4.8-22.3c-4.8-7.5-14.8-9.6-22.3-4.8c-14.2,9.2-26.8,20.4-37.8,33.1
			c-31.7-34.7-23-102.4-18.1-120.4c10.9-39.8,33-60,33.2-60.2c2.2-1.9,3.8-4.4,4.7-7.2c4.2-13.2,22.5-20.9,32.5-23.8
			c6.7,15.5,6.5,34-0.8,49.2c-3.8,8-0.5,17.6,7.5,21.5c2.3,1.1,4.6,1.6,7,1.6c6,0,11.8-3.4,14.5-9.1c12.2-25.5,11.5-55.9-1.3-81
			c16.6-9.1,31.9-4.8,32.6-4.6c4.4,1.4,9.2,0.8,13.2-1.6c20.7-12.5,65.5-18,97.1-16.9c9.8,0.3,19.8,2.2,30.4,4.2
			c10,1.9,20.4,3.8,31.2,4.5c15,1,35,8.5,52.6,15.2c6,2.3,11.8,4.5,17.4,6.4c2.9,1,5.5,1.9,7.9,2.9c-0.6,1.7-1.1,3.5-1.1,5.4
			c-0.1,5.4-4.7,11.4-11.1,14.7c-6.7,3.5-15.6,4.9-27.4,4.3c-7.4-0.4-15.5-1.4-25.6-3.3c-8.7-1.6-17.1,4.1-18.8,12.9
			c-1.6,8.7,4.1,17.1,12.9,18.8c11.6,2.2,21.1,3.4,29.9,3.8c2.3,0.1,4.5,0.2,6.6,0.2c7.7,0,14.7-0.8,21.2-2.3
			c0.8,13.3,8.8,27.2,13.8,33.8c6.2,8.1,13.8,14.3,20.4,19.8c3,2.5,6.6,3.7,10.2,3.7c4.7,0,9.3-2,12.4-5.9c5.6-6.9,4.7-17-2.2-22.7
			c-5.9-4.8-11.4-9.4-15.3-14.5c-4.3-5.7-7.5-13.9-7.4-16.5c0.2-4.5-1.5-8.6-4.3-11.6c6.5-5.8,11.3-13,14.1-20.7
			c0.4,0.5,0.9,1.1,1.3,1.6c4.2,5.1,9,10.8,16.9,13.9c4.6,2.3,17.9,17.7,27.8,32.2c2.1,3.1,5.2,5.4,8.8,6.4
			c10.4,3,24.8,13,23.5,23.2c-0.3,2.8-4,13.3-36.5,28.7c-8,3.8-11.5,13.4-7.7,21.5c3.8,8,13.4,11.5,21.4,7.7
			c14-6.6,31.1-15.9,42.5-28.7c19.6,17.6,23.2,71.3,24.5,90.3c0.2,3.3,0.4,6,0.6,8.1c1,10.9,1,10.9-4.4,22.4
			c-2.1,4.5-4.8,10.1-8.1,17.9c-1.7,3.9-3.2,6.5-4.6,8.3c-11.6-8.1-21.6-18.4-29.5-30.2c14.8-12.1,26.6-27.6,34.1-45.1
			c3.5-8.2-0.3-17.6-8.5-21.1c-8.2-3.5-17.6,0.3-21.1,8.5c-4.4,10.3-10.8,19.6-18.7,27.4c-1.3-4.4-2.5-8.9-3.3-13.5
			c-1.5-8.8-9.8-14.7-18.6-13.2c-8.8,1.5-14.7,9.8-13.2,18.6c5.7,33.9,24.3,65.4,50.5,87.6c-1.6,3.7-3.3,5.5-10.2,12.9l-1.3,1.4
			c-0.3,0.3-0.5,0.6-0.7,0.9c-16.7,20.6-41.4,17.2-77.3,9.6C1157.7,1373,1156,1372.6,1154.3,1372.3z"/>
		<path class="st1" d="M1154.5,1204.3c-3.5-1.4-7-2.7-10.5-4c-4.1-1.5-8.1-2.9-11.7-4.5c-3-25.2-12.4-43.1-27.9-53.3
			c-11.2-7.4-23.6-9.2-34.5-10.9c-6.3-1-12.3-1.9-17.2-3.7c-8.5-3.2-16.6-10.2-24.3-17c-5.5-4.9-24.7-18.6-32.8-24.3
			c0.1-2.5,0.3-4.9,0.7-6.8c0.8-3.7,3.1-7.1,6-8.9c7.6-4.6,10.1-14.5,5.5-22.1c-4.6-7.6-14.5-10.1-22.1-5.5
			c-10.6,6.4-18.2,17.2-20.9,29.7c-1,4.5-1.2,8.7-1.4,12.4c-0.2,3.2-0.4,6.2-1,8.3c-2.1,7.1-12.2,10.6-20.8,10.9
			c-4.6,0.2-9.4-0.2-14.6-0.5c-9.9-0.7-21.2-1.4-32.6,1.4c-8.6,2.1-13.9,10.8-11.8,19.5c1.8,7.4,8.4,12.3,15.6,12.3
			c1.3,0,2.5-0.2,3.8-0.5c6.6-1.6,14.5-1.1,22.8-0.5c5.7,0.4,11.7,0.8,17.9,0.6c17.6-0.6,32.6-7.5,42-18.5
			c9.5,6.8,19.6,14.3,22.5,16.8c9.5,8.3,20.3,17.7,34.3,23c8.1,3,16.4,4.3,23.7,5.4c8.7,1.3,16.3,2.5,21.6,6
			c6.9,4.6,10.6,13.8,12.4,23.1c-3.6,0-7.2,0.1-10.5,0.3c-6.3,0.3-12.3,0.6-17.6-0.2c-9-1.4-18-6.1-27.6-11.2
			c-7.2-3.8-14.7-7.8-23-10.8c-12.8-4.6-26-6.3-38.4-7.5c-16.7-1.6-34.4-1.9-50.3,6.3c-19.2,10-32.5,35.1-21.7,56.6
			c2.8,5.6,8.5,8.9,14.4,8.8c2.4,0,4.9-0.6,7.2-1.7c7.9-4,11.1-13.7,7.1-21.6c-1.6-3.2,1.9-10.5,7.8-13.5c8.8-4.6,21.4-3.9,32.4-2.8
			c11.9,1.1,21.6,2.6,30.5,5.8c6.2,2.2,12.3,5.5,18.9,9c4.9,2.6,9.9,5.2,15.2,7.5c-3,20.7,1.4,42.2,12.7,60
			c12.8,20.4,33.7,34.8,57.2,39.6c1.1,0.2,2.2,0.3,3.3,0.3c7.5,0,14.2-5.2,15.8-12.9c1.8-8.7-3.8-17.2-12.5-19
			c-14.8-3-28.4-12.5-36.4-25.2c-6.5-10.3-9.3-22.9-8.3-35.1c5.1,0.2,10.1,0,14.9-0.2c7.6-0.3,14.7-0.7,20.6,0.9
			c3.2,0.8,6.5,0.6,9.5-0.4c4.4,1.9,8.7,3.6,12.9,5.1c3.1,1.1,6.1,2.2,9.1,3.4c7.9,3.2,13,6.8,15.6,10.7c3.1,4.7,8.2,7.2,13.5,7.2
			c3,0,6.1-0.9,8.8-2.7c7.4-4.9,9.5-14.9,4.6-22.3C1178.5,1217.6,1168.6,1210.1,1154.5,1204.3z"/>
		<path class="st1" d="M909.9,1240.6c-3.1-1.6-6.3-3-9.5-4.5c-5-2.3-9.8-4.4-13.8-7c-17.1-11.1-24.1-36.8-15.1-55.1
			c3.9-8,0.7-17.6-7.3-21.6c-8-3.9-17.6-0.7-21.6,7.3c-5.3,10.7-7.6,22.5-7.3,34.3c-12.1-1.7-23.8-7.7-31.9-16.9
			c-5.9-6.7-16.1-7.3-22.7-1.4c-6.7,5.9-7.3,16.1-1.4,22.7c15.8,17.9,39.1,28.2,62.9,28.2c0.4,0,0.8,0,1.2,0
			c5.8,11.8,14.4,22.1,25.6,29.4c6,3.9,12.2,6.7,18.1,9.4c2.8,1.2,5.5,2.5,8.2,3.9c2.3,1.2,4.8,1.7,7.3,1.7c5.9,0,11.5-3.2,14.4-8.8
			C921,1254.3,917.8,1244.6,909.9,1240.6z"/>
		<path class="st1" d="M1063.2,1398.8c-8.7-10.5-23.4-17.3-37.4-17.3l0-2.3v2.3c-8.4,0-16.5,2.1-23.4,6
			c-11.6,6.5-19.6,19.4-21.5,34.5c-1.5,11.7,0.9,23.1,3.3,35.1c1.2,5.6,2.3,11.4,3.2,17.4c1.2,8.4,0.2,16.3-0.8,24
			c-0.8,6.2-1.5,12.1-1,17.7c0,0.4,0.1,0.7,0.1,1.1c1.8,13.1,14.5,17.7,24.8,17.8c6.5,0,13-2,18.9-5.8c3.1-2,5.7-4,7.7-6
			c1.8-1.8,3.3-3.8,4.5-5.8c2.6-4.5,3.9-9.9,5.4-15.6c0.9-3.7,1.9-7.5,3.3-11.3c2.9-8,6.7-16.2,11.9-25c1.3-2.3,2.6-4.8,3.8-7.5
			c7.4-16.7,8.8-34,4-47.5C1068.3,1406.2,1066.1,1402.2,1063.2,1398.8z M1054.8,1452.9l-0.6,2.1l-14.5-4.4l0.8-2.1
			c2.3-6.2,3-11.8,2-16.9c-1.1-5.7-4.5-10.7-9-13c-1.7-0.9-3.7-1.3-5.8-1.3c-0.9,0-1.8,0.1-2.6,0.3c-2.4,0.5-4.4,1.6-5.9,3.3
			c-2.8,3.2-3.4,7.5-4,12.5l-0.9,6l0.9,0.3c9.5,3.3,16.6,12.9,16.9,22.8c0.3,10.3-6.5,20.4-16.2,24.1l-0.7,0.3l-1,21l-14.7-0.7
			l1.5-32.5c0-0.5,0-0.8,0-1.1v-1.7l1.5,0.6l0.5,0.2c0.4,0.2,0.6,0.3,0.9,0.4c1.1,0.4,2.2,0.6,3.4,0.6c0.8,0,1.5-0.1,2.3-0.2
			c2.3-0.5,4.3-1.6,5.8-3.2c2.8-3.1,3.5-7.8,1.8-11.6c-1.3-2.7-3.8-4.8-6.7-5.7c-1-0.3-2.1-0.3-2.8-0.3c-0.4,0-0.7,0-1.1,0
			c-0.6,0-0.9,0-1.3,0c-1.1,0-2.4-0.1-3.6-0.7c-2.8-1.4-4-4.7-3.4-9.6c0.5-4.3,1.2-8.7,2-12.9c1.2-6.6,2.9-14.1,8.2-19.2
			c3.5-3.5,8.4-6,13.7-7.1c2-0.4,4-0.6,6-0.6c0.7,0,1.5,0,2.2,0.1c7.9,0.6,15.6,4.8,20.5,11c4,5.2,6.4,11.9,6.9,19.3
			C1057.9,1439.1,1057,1445.6,1054.8,1452.9z"/>
	</g>
	<g style="clip-path:url(#SVGID_00000012471956204254236620000007468573966808166804_);">
		<path class="st2" d="M1238,426c0,11.5-9.3,20.9-20.9,20.9s-20.9-9.3-20.9-20.9c0-11.5,9.3-20.9,20.9-20.9S1238,414.5,1238,426z"/>
		<path class="st2" d="M1330.6,399.9c0,8.8-7.1,15.9-15.9,15.9s-15.9-7.1-15.9-15.9c0-8.8,7.1-15.9,15.9-15.9
			S1330.6,391.1,1330.6,399.9z"/>
		<path class="st2" d="M1272.4,357.6c0,6.9-5.6,12.4-12.4,12.4c-6.9,0-12.4-5.6-12.4-12.4c0-6.9,5.6-12.4,12.4-12.4
			C1266.8,345.1,1272.4,350.7,1272.4,357.6z"/>
		<path class="st2" d="M1253.5,120.4c0,0,3.1,93.5,6.1,128.2c2.3,26.9,9.8,54,49.4,69.9c23.4,9.4,39.2,22.5,52.7,43.6
			c21.1,33,29.7,71.3,25.2,109.8c-45.9-1.9-49.3-16.4-101.6-16.4c-55.9,0-55.9,16.7-111.9,16.7c-38.8,0-50.7-8-73-12.9
			c109-59.8,129.7-176.2,128.5-204.9c-1.4-32.8-8.2-133.9-8.2-133.9h-35.1c-0.1,21,4.5,62.7,7.6,135.4
			c0.9,21.5-19.9,143.2-143.4,187.1c-171.6,61-154.7,257.8-155.7,277.9h92.1c0.7-8.4,2.9-25.9,9.3-49.7
			c4.9-17.9,17.9-32.5,35.2-39.4c7-2.8,14.4-4.1,21.7-4.1c10.8,0,21.5,3,30.9,8.8c34.9,21.5,75.8,32.9,118.1,32.9
			c43,0,84.4-11.9,119.6-34.4c48.6-31,82.9-78.2,96.4-132.9c13.6-55.1,4.4-111.6-25.9-159.1c-17.6-27.6-39-45.3-69.5-57.6
			c-20.7-8.3-25.2-17.6-27.1-39.7c-4.9-57.8-4.9-109.5-4.9-125.2H1253.5z"/>
	</g>
	<g style="clip-path:url(#SVGID_00000012471956204254236620000007468573966808166804_);">
		<path class="st1" d="M61.2,1745.7c-50.6,0-91.5,41-91.5,91.5c0,50.5,41,91.5,91.5,91.5c50.5,0,91.5-41,91.5-91.5
			C152.7,1786.6,111.7,1745.7,61.2,1745.7z M61.2,1862.7c-14.1,0-25.5-11.4-25.5-25.5c0-14.1,11.4-25.5,25.5-25.5
			s25.5,11.4,25.5,25.5C86.7,1851.3,75.3,1862.7,61.2,1862.7z"/>
		<path class="st1" d="M271.8,1834.1c-0.3-1.4-0.7-2.3-1-3c-0.6-1.4-1.2-2.5-1.8-3.7c-2.5-4.3-6.5-10.1-11.9-17.5
			c-8.1-10.9-19.3-24.8-32-38.5c-12.7-13.7-26.8-27.1-41.1-37.3c-20.3-14.4-40-25.5-60.2-33.1c-20.2-7.6-40.9-11.5-62.5-11.5
			c-21.6,0-42.3,3.9-62.5,11.5c-20.2,7.6-39.9,18.8-60.2,33.1c-21.3,15.2-42.4,37.7-58.6,57.2c-8.1,9.8-14.9,18.8-19.8,25.8
			c-2.5,3.5-4.5,6.5-6,9.1c-0.8,1.3-1.4,2.4-2,3.7c-0.3,0.7-0.6,1.3-0.9,2.3c-0.2,0.5-0.3,1-0.5,1.8c-0.2,0.7-0.3,1.7-0.3,3.1
			c0,1.4,0.2,2.4,0.3,3.1c0.3,1.4,0.7,2.2,1,3c0.6,1.4,1.2,2.5,1.8,3.7c2.5,4.3,6.5,10.1,11.9,17.5c8.1,10.9,19.3,24.8,32,38.5
			c12.7,13.7,26.8,27.1,41.1,37.3c20.3,14.4,40,25.5,60.2,33.1c20.2,7.6,40.9,11.5,62.5,11.5c21.6,0,42.3-3.9,62.5-11.5
			c20.2-7.6,39.9-18.8,60.2-33.1c21.3-15.2,42.4-37.7,58.6-57.2c8.1-9.8,14.9-18.8,19.8-25.8c2.5-3.5,4.5-6.5,6-9.1
			c0.8-1.3,1.4-2.4,2-3.7c0.3-0.7,0.6-1.3,0.9-2.3c0.2-0.5,0.3-1,0.5-1.8c0.2-0.7,0.3-1.7,0.3-3.1
			C272.1,1835.7,271.9,1834.8,271.8,1834.1z M237.8,1840c-5,7.1-11.5,15.6-18.4,23.9c-19,22.9-37.3,40.9-52.9,51.9
			c-19.1,13.5-36.6,23.2-53.4,29.5c-17.2,6.5-34.2,9.6-51.9,9.6h-0.1c-17.8,0-34.8-3.1-52-9.6c-16.9-6.3-34.3-16-53.5-29.5
			c-10.9-7.7-23.2-18.9-36.5-33.2c-14.1-15.1-24.8-29-29.9-36c-3-4-5.1-7.1-6.7-9.4c0.6-0.9,1.3-1.8,2-2.8
			c5-7.1,11.5-15.6,18.4-23.9c19-22.9,37.3-40.8,52.9-51.9c19.1-13.5,36.6-23.2,53.4-29.5c17.2-6.5,34.2-9.6,51.9-9.6
			c17.9,0,34.9,3.1,52.1,9.6c16.9,6.3,34.3,16,53.5,29.5c10.9,7.7,23.2,18.9,36.5,33.3c14,15.1,24.8,29,30,36c2.9,4,5.1,7,6.7,9.4
			C239.2,1838.1,238.5,1839,237.8,1840z"/>
	</g>
	<g style="clip-path:url(#SVGID_00000012471956204254236620000007468573966808166804_);">
		<path class="st1" d="M610.8,101.9h19.5c1.9,4.5,5.7,8.8,11,8.8c7.8,0,12.3-6.7,12.3-15c0-8.3-4.5-15-12.3-15c-5.2,0-9,4.3-11,8.8
			h-19.5c-0.8-12.5-4.2-24.3-9.6-35l21.4-12.4c3.9,2.9,9.4,4.7,13.9,2.1c6.7-3.9,7.3-12,3.1-19.1s-11.4-10.7-18.1-6.8
			c-4.5,2.6-5.7,8.2-5.1,13.1l-21.6,12.4c-6.7-9.7-15.3-18-25.1-24.5l7.8-13.6c4.9,0.6,10.5-0.6,13.1-5.1c3.9-6.7,0.3-14-6.8-18.1
			c-7.2-4.1-15.2-3.6-19.1,3.1c-2.6,4.5-0.8,10,2.1,13.9l-7.9,13.7c-10.1-4.8-21.1-7.7-32.8-8.5v-20.3c4.5-1.9,8.8-5.7,8.8-11
			c0-7.8-6.7-12.3-15-12.3c-8.3,0-15,4.5-15,12.3c0,5.2,4.3,9,8.8,11V4.8c-11.7,0.8-22.7,3.8-32.8,8.5l-7.9-13.7
			c2.9-3.9,4.7-9.4,2.1-13.9c-3.9-6.7-12-7.3-19.1-3.1c-7.2,4.1-10.7,11.4-6.8,18.1c2.6,4.5,8.2,5.7,13.1,5.1l7.8,13.6
			c-9.9,6.5-18.4,14.8-25.1,24.5l-21.6-12.5c0.6-4.9-0.6-10.5-5.1-13.1c-6.7-3.9-14-0.3-18.1,6.8c-4.1,7.2-3.6,15.2,3.1,19.1
			c4.5,2.6,10,0.8,13.9-2.1l21.4,12.4c-5.4,10.6-8.8,22.4-9.6,35h-25.3c-1.9-4.5-5.7-8.8-11-8.8c-7.8,0-12.3,6.7-12.3,15
			c0,8.3,4.5,15,12.3,15c5.2,0,9-4.3,11-8.8h25.3c0.8,11.8,3.8,22.9,8.6,33.1l-14.7,8.5c-3.9-2.9-9.4-4.7-13.9-2.1
			c-6.7,3.9-7.3,12-3.1,19.1c4.1,7.2,11.4,10.7,18.1,6.8c4.5-2.6,5.7-8.2,5.1-13.1l14.6-8.4c6.5,9.9,15,18.5,24.8,25.2l-11.3,19.6
			c-4.9-0.6-10.5,0.6-13.1,5.1c-3.9,6.7-0.3,14,6.8,18.1c7.2,4.1,15.2,3.6,19.1-3.1c2.6-4.5,0.8-10-2.1-13.9l11.2-19.5
			c10.5,5.2,22.1,8.5,34.4,9.3v22.8c-4.5,1.9-8.8,5.7-8.8,11c0,7.8,6.7,12.3,15,12.3c8.3,0,15-4.5,15-12.3c0-5.2-4.3-9-8.8-11v-22.8
			c11.7-0.8,22.7-3.8,32.8-8.5l7.9,13.7c-2.9,3.9-4.7,9.4-2.1,13.9c3.9,6.7,12,7.3,19.1,3.1c7.2-4.1,10.7-11.4,6.8-18.1
			c-2.6-4.5-8.2-5.7-13.1-5.1l-7.8-13.6c10-6.5,18.6-14.9,25.3-24.7l20.6,11.9c-0.6,4.9,0.6,10.5,5.1,13.1c6.7,3.9,14,0.3,18.1-6.8
			c4.1-7.2,3.6-15.2-3.1-19.1c-4.5-2.6-10-0.8-13.9,2.1l-20.4-11.8C606.6,126.1,609.9,114.3,610.8,101.9z"/>
		<g>
			<path class="st1" d="M821.1,214.9l-10.9-2.7c-2.8-0.7-5-2.8-5.7-5.6c-0.7-2.8,0.1-5.7,2.1-7.7l8-7.8c2.6-2.5,3.2-6.5,1.3-9.6
				c-1.8-3.1-5.5-4.6-9-3.6l-10.8,3.1c-2.8,0.8-5.7,0-7.7-2c-2-2-2.8-5-2-7.7l3.1-10.8c1-3.5-0.5-7.2-3.6-9
				c-3.1-1.8-7.1-1.3-9.6,1.4l-7.8,8c-2,2.1-4.9,2.9-7.7,2.1c-2.8-0.7-4.9-2.9-5.6-5.7l-2.7-10.9c-0.9-3.5-4-6-7.7-6
				c-3.6,0-6.8,2.5-7.7,6l-2.7,10.9c-0.7,2.8-2.8,5-5.6,5.7c-2.8,0.7-5.7-0.1-7.7-2.1l-7.8-8c-2.5-2.6-6.5-3.2-9.6-1.4
				c-3.1,1.8-4.6,5.5-3.6,9l3.1,10.8c0.8,2.8,0,5.7-2,7.7c-2,2-5,2.8-7.7,2l-10.8-3.1c-3.5-1-7.2,0.5-9,3.6
				c-1.8,3.1-1.3,7.1,1.3,9.6l8,7.8c2.1,2,2.9,4.9,2.1,7.7c-0.7,2.8-2.9,4.9-5.7,5.6l-10.9,2.7c-3.5,0.9-6,4-6,7.7
				c0,3.6,2.5,6.8,6,7.7l10.9,2.7c2.8,0.7,5,2.8,5.7,5.6c0.7,2.8-0.1,5.7-2.1,7.7l-8,7.8c-2.6,2.5-3.2,6.5-1.3,9.6
				c1.8,3.1,5.5,4.6,9,3.6l10.8-3.1c2.8-0.8,5.7,0,7.7,2c2,2,2.8,5,2,7.7l-3.1,10.8c-1,3.5,0.5,7.2,3.6,9c3.1,1.8,7.1,1.3,9.6-1.4
				l7.8-8c2-2.1,4.9-2.9,7.7-2.1c2.8,0.7,4.9,2.9,5.6,5.7l2.7,10.8c0.9,3.5,4,6,7.7,6c3.6,0,6.8-2.5,7.7-6l2.7-10.8
				c0.7-2.8,2.8-5,5.6-5.7c2.8-0.7,5.7,0.1,7.7,2.1l7.8,8c2.5,2.6,6.5,3.2,9.6,1.4c3.1-1.8,4.6-5.5,3.6-9l-3.1-10.8
				c-0.8-2.8,0-5.7,2-7.7c2-2,5-2.8,7.7-2l10.8,3.1c3.5,1,7.2-0.5,9-3.6c1.8-3.1,1.3-7.1-1.3-9.6l-8-7.8c-2.1-2-2.9-4.9-2.1-7.7
				c0.7-2.8,2.9-4.9,5.7-5.6l10.9-2.7c3.5-0.9,6-4,6-7.7C827,218.9,824.6,215.8,821.1,214.9z M723.8,183.5c4.3,0,7.7,3.5,7.7,7.7
				c0,4.3-3.5,7.7-7.7,7.7c-4.3,0-7.7-3.5-7.7-7.7C716.1,187,719.6,183.5,723.8,183.5z M719.9,255.6c-6.7,0-12.1-5.4-12.1-12.1
				c0-6.7,5.4-12.1,12.1-12.1c6.7,0,12.1,5.4,12.1,12.1C732,250.2,726.6,255.6,719.9,255.6z M737,224.8c-3.4,0-6.1-2.7-6.1-6.1
				c0-3.4,2.7-6.1,6.1-6.1c3.4,0,6.1,2.7,6.1,6.1C743.1,222.1,740.4,224.8,737,224.8z M761.5,253.7c-4.9,0-8.8-3.9-8.8-8.8
				c0-4.9,3.9-8.8,8.8-8.8c4.9,0,8.8,3.9,8.8,8.8C770.3,249.8,766.4,253.7,761.5,253.7z M765.4,218.6c-6.4,0-11.5-5.2-11.5-11.5
				c0-6.4,5.2-11.5,11.5-11.5c6.4,0,11.5,5.2,11.5,11.5C777,213.4,771.8,218.6,765.4,218.6z"/>
		</g>
		<path class="st1" d="M632.2-63.8c1.8-1,6.1,3.9,8,3.4c2-0.5,3.2-7,5.3-7c2,0,3.3,6.4,5.3,7c2,0.5,6.2-4.4,8-3.4
			c1.7,1-0.4,7.2,1.1,8.7c1.5,1.5,7.7-0.7,8.7,1.1c1,1.8-3.9,6.1-3.4,8c0.5,2,7,3.2,7,5.3c0,2-6.4,3.3-7,5.3c-0.5,2,4.4,6.2,3.4,8
			c-1,1.7-7.2-0.4-8.7,1.1c-1.5,1.5,0.7,7.7-1.1,8.7c-1.8,1-6.1-3.9-8-3.4c-2,0.5-3.2,7-5.3,7c-2,0-3.3-6.4-5.3-7
			c-2-0.5-6.2,4.4-8,3.4c-1.7-1,0.4-7.2-1.1-8.7c-1.5-1.5-7.7,0.7-8.7-1.1c-1-1.8,3.9-6.1,3.4-8c-0.5-2-7-3.2-7-5.3
			c0-2,6.4-3.3,7-5.3c0.5-2-4.4-6.2-3.4-8c1-1.7,7.2,0.4,8.7-1.1C632.6-56.6,630.4-62.8,632.2-63.8z"/>
		<path class="st1" d="M760.1,23.9c0-3.4-10.6-5.4-11.5-8.7c-0.9-3.2,7.3-10.3,5.6-13.3c-1.7-2.9-11.9,0.7-14.3-1.8
			c-2.5-2.5,1.1-12.7-1.8-14.3c-3-1.7-10.1,6.5-13.3,5.6c-3.3-0.9-5.3-11.5-8.7-11.5c-3.4,0-5.4,10.6-8.7,11.5
			c-3.2,0.9-10.3-7.3-13.3-5.6c-2.9,1.7,0.7,11.9-1.8,14.3c-2.5,2.5-12.7-1.1-14.3,1.8c-1.7,3,6.5,10.1,5.6,13.3
			c-0.9,3.3-11.5,5.3-11.5,8.7c0,3.4,10.6,5.4,11.5,8.7c0.9,3.2-7.3,10.3-5.6,13.3c1.7,2.9,11.9-0.7,14.3,1.8
			c2.5,2.5-1.1,12.7,1.8,14.3c3,1.7,10.1-6.5,13.3-5.6c3.3,0.9,5.3,11.5,8.7,11.5c3.4,0,5.4-10.6,8.7-11.5
			c3.2-0.9,10.3,7.3,13.3,5.6c2.9-1.7-0.7-11.9,1.8-14.3s12.7,1.1,14.3-1.8c1.7-3-6.5-10.1-5.6-13.3
			C749.5,29.4,760.1,27.3,760.1,23.9z M705.3,25.9c-2.6,0-4.7-2.1-4.7-4.7c0-2.6,2.1-4.7,4.7-4.7c2.6,0,4.7,2.1,4.7,4.7
			C710,23.8,707.9,25.9,705.3,25.9z M718.3,12.9c0-2,1.6-3.6,3.6-3.6c2,0,3.6,1.6,3.6,3.6s-1.6,3.6-3.6,3.6
			C719.9,16.5,718.3,14.9,718.3,12.9z M725.6,38c-3.3,0-6-2.7-6-6.1c0-3.3,2.7-6,6-6c3.3,0,6.1,2.7,6.1,6
			C731.6,35.3,728.9,38,725.6,38z"/>
	</g>
	<g style="clip-path:url(#SVGID_00000012471956204254236620000007468573966808166804_);">
		<path class="st2" d="M175.2,100.4c3.3-4.2,5.1-9.8,5-15.7c-0.2-11.5-4-19.5-7.4-26.6c-1.7-3.6-3.3-6.9-4.5-10.8
			c-2.9-8.8-2.6-19.1-2.4-29.1c0.1-2.7-1-5.4-2.9-7.4s-4.5-3.1-7.3-3.1L56.1,6.5c0,0-0.1,0-0.1,0c-2.7,0-5.3,1.1-7.2,2.9
			c-2,1.9-3.1,4.5-3.1,7.3c0,0-0.2,19.9-0.2,25.3c-0.3,0.4-0.7,0.8-1,1.1c-1.2,1.2-2.6,2.8-3.8,4.8c-5.5,9-7.7,24.9-1.9,36
			c3.9,7.4,10.7,11.7,19.2,12.2c7.4,0.4,14.3-1.7,20.3-3.6c4.5-1.4,8.8-2.7,12.5-2.8c7.5-0.1,14.9,0.9,22,3.2c5.7,1.8,9.5,4,14,6.6
			c3.3,1.9,7.1,4.1,11.9,6.3C153.3,112.4,167.3,110.3,175.2,100.4z M159.7,85c0,1.3-0.3,2.2-0.6,2.6c-2.2,2.8-8.8,0.8-12-0.6
			c-3.8-1.7-6.8-3.4-9.9-5.3c-5.1-3-10.3-6-18.2-8.5c-9.2-2.9-18.8-4.3-28.5-4.1c-6.7,0.1-12.8,2-18.2,3.7
			c-4.5,1.4-8.8,2.7-12.4,2.7c-0.2,0-0.5,0-0.7,0c-1.3-0.1-1.6-0.3-2.1-1.3c-2.1-3.9-1-12,1.2-15.7c0.2-0.3,0.9-1,1.3-1.5
			c2.4-2.6,6.5-7,6.5-13.7l0.1-16.2l79,1c0.1,8.3,0.8,17,3.5,25.5c1.7,5.2,3.7,9.5,5.5,13.3C157.3,73.4,159.5,78,159.7,85z"/>
		<path class="st2" d="M325.7,322.7c-3.1-5.3-6.3-10.8-8.1-15.5c-8.6-22.2-16.3-40.9-30.9-62.8c-2.1-3.1-2.3-8.5-2.6-14.1
			c-0.4-7.9-0.8-16.8-6.1-24.6c-7.6-11.3-22.4-15.9-28.3-28.5c-10.2-21.9-35-51.3-64.8-51.3c-7.5,0-15.2,1.7-20.9,6.8
			c-1.4,1.2-2.5,2.7-3.7,4.1c-0.8-1.2-1.7-2.8-2.5-3.9c-8.6-11.9-24.6-26.6-51.5-29.3c-4.3-0.4-8.3-0.6-12.1-0.6
			c-29,0-44.7,11.7-52.9,22.2c-7.6,9.7-11.1,22.2-10.7,34.6c-8.5,5.3-17.9,14.2-21.7,25.4c-2.2,6.3-1.2,14.9-0.5,18.7
			c-0.1,4-1.3,7.7-3.4,10.9c-14.2,21.8-29.8,59-34.8,71.5c-1.4,0.6-2.7,1.3-4,2.5c-10.1,9.5-14.3,22.2-11.8,34.7
			c-0.5,0.6-0.9,1.3-1.2,2c-2.6,5.7-9.7,21.5-12.1,26.1c-1.5,2.9-5,9.6-2.4,17.4c0.3,0.9,0.7,1.7,1,2.4l-2.2,4.9
			c-0.4,0.2-1,0.5-1.5,0.7c-1.7,0.8-4,1.8-6.4,3.7c-4.9,3.9-6.6,9.3-7.8,12.8l-1,2.9c-0.7,2-1.8,5.1-2.7,7.7c-0.5,1.3-1,2.8-1.3,4.4
			c-0.5,1.3-0.7,2.6-0.7,4.1c0,0.2,0.1,0.5,0.1,0.7c-2,0.9-3.7,2.3-4.8,4.4l-13.7,25.2c-1.4,2.7-1.6,5.7-0.6,8.3
			c-0.2,0.1-0.3,0.3-0.5,0.4c-2.6,0.9-4.8,2.8-6,5.5l-9,20.2c-0.1,0.2-0.1,0.3-0.2,0.5c-4.5,11.5,0.6,28.4,14,33.7
			c7.2,2.8,15.1,2.8,21.8-0.2c5.4-2.4,9.6-6.5,11.8-11.6l10.9-20.1c1.2-2.2,1.5-4.7,1-7c2-0.9,3.7-2.4,4.7-4.5l13.7-26.2
			c0.8-1.4,1.1-3,1.1-4.5c2.2-1.8,3.9-4.3,5.3-6.3c1.5-2.3,3.3-5,4.5-6.8l1.8-2.7c2.1-3.1,5.4-7.7,5.5-14c0.1-3.1-0.5-5.5-0.9-7.4
			c-0.1-0.5-0.3-1.2-0.3-1.6l2.6-4.7c0.8-0.1,1.6-0.3,2.5-0.6c5.6-1.9,8.9-6,10.8-9.3l-0.3,1.2c-1.2,3.5-3.6,11.2,0.4,19
			c0.6,1.2,1.3,2.2,2,3l-2,7.4c-0.3,0.3-0.9,0.7-2.1,1.6c-1.7,1.1-4.1,2.7-6.4,5.2c-5.6,6.1-13.5,35.6-13.9,37.9
			c-0.1,0.8-0.1,1.6-0.1,2.4c0,0.5,0,0.9,0,1.4c0.1,1.1,0.4,2.1,0.8,3c-1.7,1.2-3,2.9-3.8,4.9l-14.2,39.4c-1,2.7-0.8,5.5,0.4,7.8
			c-1.7,1.2-3.1,2.9-3.9,5.1l-10.7,30.7c-3.2,9.4,4.4,24.8,17.8,29.6c14.8,5.2,30.5-0.1,35-11.9l10.1-28.7c0.6-1.6,0.7-3.2,0.4-4.8
			c0.2-1.3,0.1-2.6-0.3-3.8c2.3-1.1,4.3-3.1,5.2-5.8l14.1-39.5c0.7-2,0.8-4.1,0.3-6c0.1-0.1,0.3-0.2,0.4-0.3
			c0.3-0.2,0.6-0.5,0.9-0.7c0.2-0.1,0.4-0.2,0.5-0.4c0.1,0,0.1-0.1,0.1-0.2c0.3-0.3,0.5-0.6,0.7-0.8c0.2-0.2,0.4-0.5,0.6-0.7
			c0.2-0.2,0.3-0.5,0.4-0.8c0.2-0.4,0.4-0.7,0.6-1.1c0-0.1,0.1-0.1,0.1-0.2c3.7-9.2,7.9-19.6,8.4-20.8l0.5-1.1
			c1.9-4,4.6-9.4,3.7-16.2c-0.4-3.3-1.5-6-2.3-7.9c-0.6-1.4-0.8-2.1-0.9-2.5l2.6-7.3c1-0.3,2.2-0.7,3.4-1.3
			c7.7-4,10.1-11.8,11.1-15.3l5.1-14.9c-0.3,3.4-2,25.9-2.9,32.7c-0.5,3.5-1.6,11.8,3.9,18.8c0.8,1.1,1.7,1.9,2.6,2.6l-0.6,7.7
			c-0.2,0.4-0.7,0.9-1.8,1.9c-1.5,1.5-3.5,3.4-5.3,6.3c-0.9,1.5-1.4,3.2-1.5,4.9l-1.3,29.8c0,0.1,0,0.2,0,0.4c0,0.4,0,0.7,0.1,1.1
			c0,0.3,0.1,0.7,0.1,1c0.1,0.3,0.2,0.6,0.2,0.9c0.1,0.4,0.2,0.7,0.4,1c0,0.1,0.1,0.2,0.1,0.3c0.1,0.2,0.2,0.3,0.3,0.5
			c0.2,0.3,0.3,0.6,0.5,0.9c0.2,0.3,0.4,0.5,0.6,0.8c0.2,0.2,0.4,0.4,0.6,0.7c-1.7,1.7-2.7,4-2.9,6.5l-2.2,39.9
			c-0.2,3,1,5.7,2.9,7.7c-1.6,1.7-2.6,3.9-2.7,6.4l-1.5,30.2c0,0.2,0,0.3,0,0.5c-0.1,17.5,10.6,29.5,27.2,30.6c0.2,0,0.5,0,0.7,0
			h4.1c15.7,0,27.1-11.1,27.4-26.4l2.7-31.4c0.2-2.6-0.6-5.1-2.1-7.1c2-1.8,3.4-4.3,3.6-7.2l2.1-38.4c0.1-2.3-0.6-4.5-1.8-6.3
			c0.1-0.1,0.2-0.2,0.3-0.3c0.2-0.2,0.4-0.4,0.5-0.6c0.2-0.2,0.3-0.3,0.5-0.5c0.1-0.1,0.1-0.2,0.2-0.4c0.2-0.3,0.3-0.6,0.5-0.8
			c0.2-0.3,0.3-0.6,0.5-1c0.1-0.3,0.2-0.6,0.3-0.9c0.1-0.4,0.2-0.7,0.3-1.1c0-0.1,0.1-0.2,0.1-0.3l3.9-28.1c0.2-1.7,0-3.5-0.6-5.1
			c-1.2-3.1-2.9-5.5-4.1-7.2c-0.9-1.3-1.3-1.8-1.4-2.2l0.8-7.7c0.9-0.5,2-1.2,3-2.1c6.7-5.9,7.1-14.2,7.2-17.8
			c0.3-5.7,2.8-24.1,4-32c0.5,4.9,1,9.3,1.2,11.8c0.2,3.6,0.8,11.9,7.5,17.6c1,0.9,2.1,1.5,3,2l0.9,7.6c-0.2,0.4-0.5,1-1.4,2.3
			c-1.2,1.7-2.8,4.1-3.9,7.2c-2.3,6.4-0.9,12.3,0.1,16.6l0.8,3.6c0.5,2.4,1.3,6.2,2,9.4c0.9,4.3,2,9.1,5.3,11.8
			c-1,1.8-1.6,4-1.3,6.3l3.8,31.9c0.3,2.9,1.9,5.4,4.1,7c-1.4,2-2.2,4.5-1.9,7.1l3.6,32.3c0.4,4.9,3,9.7,7.2,13.2
			c5.5,4.5,13.4,6.6,21.6,5.7c15.6-1.7,27.5-13.3,26.4-25.9l-3.3-30.3c-0.2-1.7-0.8-3.2-1.7-4.5c-0.4-1.2-1.1-2.4-2-3.4
			c1.8-2.1,2.8-4.9,2.4-7.9l-3.8-31.9c-0.3-2.5-1.5-4.8-3.3-6.4c0.1-0.2,0.2-0.4,0.3-0.6c0.1-0.2,0.2-0.3,0.3-0.5
			c0.6-1.4,0.9-3,0.9-4.4c0.2-1.9,0.2-3.8,0.2-5.6c0-3.2-0.1-7.1-0.1-9.6l0-2.4l0-1.4c0-4.4,0.1-10.5-3.6-16.2
			c-1.8-2.8-3.9-4.8-5.4-6.2c-1.1-1-1.6-1.5-1.8-1.9l-0.8-7.7c0.8-0.7,1.7-1.5,2.5-2.6c5.2-6.9,4.1-15,3.5-18.6l-3.5-31.8
			c0.3-0.5,0.6-0.9,0.8-1.4c9.5-19.1-3.6-37.5-10.6-46.2l-14.7-77.2c4.7-3.6,8.1-8.4,10-14.3c2.6-8.3,1.8-17.7-0.7-25.7
			c4.4-0.3,8-1,10.2-1.4c7.2-1.4,22.9,14.9,28.4,27.4c1.9,4.3,2.6,9.5,2.2,15.5c-1.3,18.4,7.3,33.3,23.6,40.9
			c18.8,8.7,28.3,19.7,31,35.6c2.1,13,10.8,30,25.2,38.5c9.9,5.8,20.8,6.9,31.8,3c7.8-2.8,11.1-7.8,12.4-11.5
			C339.4,346.1,332.7,334.7,325.7,322.7z M168.4,363c-4.3,8.5-14.8,10.5-23.1,8.1c-1.1-0.3-2.7-0.9-4.4-1.8
			c-0.8-0.8-1.7-1.4-2.7-1.9c-3-2.5-5.4-6.4-4.7-12.5c0.2-1.9,1.8-4.8,3.4-7.6c3.2-5.8,7.2-13.1,5.5-21.9l0,0
			c-0.6-4.5-3.1-20.2-12.5-80.1c-0.5-3.2-2.5-6-5.3-7.5c-2-1.2-12.5-8.6-1.9-28.5c9.7,0,17.7-1,24.1-4c0.3,0.9,0.7,1.7,1.2,2.5
			c3.4,5.1,6,14.4,4,20.5c-0.9,2.8-2.6,4.5-5.5,5.6c-4.7,1.8-7.4,6.6-6.4,11.5l16.5,87c0.3,1.7,1.1,3.3,2.2,4.6
			C168.5,349.1,171.5,356.8,168.4,363z M68.4,204.5c-6.3,16.7-7.3,30.7-2.9,41.6c2.1,5.2,5,8.8,7.7,11.2l-1.1,73
			c-9.2,6.2-15.1,17.7-17,28.8c-0.6,0.3-1.2,0.6-1.7,1c-7.7,5.3-13.4,6.7-20.3,5c-7.1-1.8-12.4-6.9-13.8-13.5
			c-1.1-5.4-0.7-14.2,5.2-16.4c3-1.1,5.3-3.5,6.2-6.6l26.5-85.2c0.9-3,0.4-6.2-1.3-8.8c-1.1-1.7-10.4-17.2,2.3-32.6
			C61.3,203.1,64.7,203.9,68.4,204.5z M84.3,543.4c-1.8-1.3-3.9-2-6.1-2c-2,0-4.1,0.6-5.8,1.8l-3.8,2.6l1.9-35.4
			c0.1-2.7-0.8-5.2-2.4-7.1l13-5.9l13.4,9.4c-1.5,1.7-2.5,3.9-2.7,6.3l-1.9,34.4L84.3,543.4z M71.2,479.4l0.4-9.7
			c0.2-0.2,0.5-0.5,0.8-0.8c2.3-2.2,5.7-5.6,7.4-11.5c0.2-0.7,0.3-1.3,0.4-2l1.1-13c0-0.3,0-0.7,0-1c-0.1-7.2-5.2-10.8-7.2-12.2
			c0-0.4,0-1.3,0.3-3.1c0.6-4.7,1.6-15.5,2.2-23.8c9.7,4,19.3,5.1,28.1,3.1c-1.2,8.6-2.7,20.4-3,25.6c-0.1,1.7-0.2,2.6-0.3,3.1
			c-2.3,1-7.8,3.7-9.2,10.7c-0.1,0.3-0.1,0.7-0.2,1l-1.3,12.9c-0.1,0.7-0.1,1.3,0,2c0.6,6.2,3.4,10.1,5.2,12.7
			c0.2,0.3,0.4,0.6,0.6,0.9l-1.1,8.1l-7.5-5.2c-1.8-1.2-3.8-1.9-5.9-1.9c-1.5,0-2.9,0.3-4.3,0.9L71.2,479.4z M100.6,208.1
			c-3.7,10-4.4,19.3-1.8,27.8c2.5,8.3,7.5,13.8,11.3,16.9c2.6,16.5,11.8,75.1,12,76.2c0,0.1,0,0.3,0.1,0.4c0.3,1.6-1.7,5.2-3.3,8.1
			c-2.4,4.4-5.1,9.3-5.8,15.2c-0.8,7.1,0.4,13.8,3.2,19.5c-2.6,5.1-12.3,19.7-32.6,10.8c-8-3.5-9.3-11.1-8.9-16.9
			c0.5-9.7,6-18.1,10.5-19.5c4.2-1.3,7.1-5.2,7.2-9.7l1.2-84.6c0.1-4.6-1.9-8.3-6.2-9.6c-3.9-2.4-7.9-12.7,2-35.7l1.1,0.1
			C94.1,207.4,97.4,207.8,100.6,208.1z M176.6,491.8l3.1,26.2L178,517c-1.6-0.9-3.3-1.3-5-1.3c-2.4,0-4.7,0.8-6.6,2.4l-2.4,2
			l-3.2-26.6c-0.3-2.2-1.2-4.1-2.5-5.6l8.4-7.1l11,4.9C176.7,487.6,176.3,489.6,176.6,491.8z M146.1,392.2c6.9,0.9,14.3,0.2,21-2.4
			l2,18.1c0,0.2,0,0.3,0.1,0.5c0.3,1.7,0.3,2.6,0.3,3.1c-2,1.5-6.9,5.2-6.9,12.4c0,0.3,0,0.7,0.1,1l1.3,12.9c0.1,0.7,0.2,1.3,0.4,2
			c1.8,5.9,5.4,9.2,7.7,11.4c1,0.9,1.7,1.6,2.2,2.3c0.3,0.7,0.3,3.3,0.3,4.9l0,1.6c0,0.2,0,0.9,0,1.9l-5.4-2.4
			c-1.3-0.6-2.8-0.9-4.2-0.9c-2.4,0-4.7,0.8-6.6,2.4l-3.8,3.3c-0.3-1.3-0.5-2.2-0.5-2.4l-0.4-1.6c-0.4-1.5-1-4.1-0.8-4.8
			c0.3-0.8,0.9-1.6,1.6-2.7c1.8-2.6,4.5-6.6,5-12.8c0.1-0.7,0-1.4,0-2l-1.5-12.9c0-0.3-0.1-0.7-0.2-1c-1.6-7.1-7.2-9.6-9.5-10.6
			c0-0.4-0.2-1.3-0.3-3.1C147.7,406.7,146.9,399.3,146.1,392.2z M170.4,571.7l-3.1-27.5l6.9-5.8l7.7,4.3l2.8,26
			c-0.5,1.1-3.4,3.5-8.1,4C173.2,573.2,171.1,572.3,170.4,571.7z M67,594.3l1.1-23.2l9.8-6.8l9.6,7.1l-2.2,25.5c0,0.3,0,0.5,0,0.8
			c0,6.4-5.2,6.4-6.9,6.4h-3.8C72.2,603.9,67.1,603.2,67,594.3z M1.2,482l-12,33.8l-1-1.4c-2-2.8-5.1-4.4-8.4-4.4
			c-0.9,0-1.7,0.1-2.6,0.3l-3.3,0.9l12-33.4c0.8-2.1,0.8-4.3,0.2-6.3l12.1-1.3l6.5,6.9C3.2,478.4,1.9,480,1.2,482z M-41.9,559
			l8.6-24.7l8.7-2.3l5.1,7.3l-8.7,24.7c-0.9,0.7-4.6,1.7-9.1,0.1C-39.6,563.2-41.3,560.5-41.9,559z M-0.9,434.7
			c0.5-0.5,1.3-1,2.1-1.5c2.7-1.8,6.7-4.4,9.5-10c0.3-0.6,0.5-1.2,0.7-1.9l3.4-12.5c0.1-0.3,0.2-0.7,0.2-1c1.2-7.2-3-11.6-4.8-13.4
			c0.1-0.3,0.3-1.2,0.9-3c0-0.1,0.1-0.3,0.1-0.4l3.4-12c3.9,2.7,8.3,4.8,13.2,6c3,0.8,5.9,1.1,8.6,1.2L32.3,399
			c-0.1,0.2-0.1,0.3-0.2,0.5c-0.5,1.7-0.8,2.5-1,2.9c-2.5,0.5-8.4,1.7-11.5,8.2c-0.1,0.3-0.3,0.6-0.4,1l-4.3,12.3
			c-0.2,0.6-0.4,1.3-0.5,2c-0.9,6.1,0.9,10.6,2.1,13.6c0.5,1.2,0.9,2.2,1,3c0,0.7-1.1,3.1-1.8,4.5l-0.7,1.4
			c-0.2,0.5-1.2,2.8-2.8,6.7l-2.4-2.6c-2-2.1-4.7-3.3-7.5-3.3c-0.4,0-0.7,0-1.1,0.1l-7.7,0.8C-4.5,443.9-2.1,437.2-0.9,434.7z
			 M-59.2,432.2l-10.7,20.5l-0.4-0.7c-1.8-3.3-5.3-5.2-9-5.2c-0.5,0-1,0-1.5,0.1l-0.8,0.1l10.7-19.7c0.9-1.6,1.2-3.4,1.2-5.1
			l8.5-0.3l3.9,7.8C-58,430.5-58.7,431.3-59.2,432.2z M-99.8,485.2l7-15.7l8.2-1.2l3.6,6.3l-8.5,15.7c-0.2,0.4-0.4,0.8-0.6,1.2
			c-0.1,0.3-0.6,0.6-1.2,0.9c-1.3,0.6-3.6,0.8-6-0.1C-99.3,491.4-100.4,487-99.8,485.2z M-45.8,387.8c0.4-0.5,0.7-1.1,1-1.8
			l4.6-10.1c0.1-0.3,0.3-0.6,0.4-0.9c2-5.8-0.5-10.4-1.9-12.6c0.2-0.4,0.4-0.8,0.7-1.5c1.7-3.2,5-10.3,7.8-16.5
			c5.2,4.3,11.7,7.2,18.6,8.1l-10.1,19c-0.1,0.1-0.2,0.3-0.2,0.4c-0.3,0.7-0.6,1.2-0.8,1.5c-2.6,0.1-7.7,0.9-11.2,6
			c-0.2,0.3-0.4,0.6-0.5,0.9l-5.3,9.8c-0.3,0.6-0.6,1.2-0.8,1.9c-1.7,5.4-0.7,9.7-0.1,12.5c0.2,1,0.4,1.8,0.4,2.3
			c-0.1,0.2-0.8,1.3-1.5,2.2l-1.1-2.2c-1.7-3.5-5.3-5.7-9.2-5.7c-0.1,0-0.2,0-0.4,0l-4.1,0.1c0-0.1,0.1-0.2,0.1-0.3l0.4-1.3
			c0.4-1.1,0.9-2.9,1.3-3.3c0.2-0.1,0.9-0.5,1.9-0.9C-53.1,394.2-49.1,392.4-45.8,387.8z M35.7,181.3c1.3,2.8,2.9,5.5,4.8,8.1
			c0.3,0.4,0.5,0.7,0.8,1c-14.6,18.8-10.9,39.4-5.1,51.2l-23.8,76.8c-3.6,2.2-6.4,5.1-8.6,8.3c-0.1,0-0.1,0.1-0.2,0.1
			c-5.3,4.2-10.5,6-15.4,5.4c-6.2-0.8-11.5-5.2-13.5-11.2c-1.1-3.3-1.9-9.7,4.1-16.2c2.9-1,6.8-2.4,8.6-7c0.8-2,18.8-47.9,34.6-72
			c4.4-6.7,6.7-14.6,6.7-22.9c0-0.6-0.1-1.3-0.2-1.9c-0.6-3.4-0.8-8-0.4-9.4C29.3,188.3,32.1,184.6,35.7,181.3z M141.9,146.2
			c-4.5,2-8.6,4.8-11.2,9.1c-2.7,4.3-3.9,9.4-4.1,14.4c-0.3,6.5,1.1,13.1,3.5,18.7c-2.2,0.2-4.5,0.3-7.2,0.3
			c-8.2,0-18.6-0.9-30.3-2.1c-8.3-0.8-16.7-1.2-24.8-3.2c-4.2-1-8.2-2.6-10.8-6.2c-8.3-11.5-8.3-28.9,0.2-39.6
			c8.9-11.2,25.1-16,46.9-13.8c15.6,1.6,28,8.6,37,21C141.3,145.2,141.6,145.7,141.9,146.2z M315.9,349c-5.1,1.7-9.7,1.2-14.2-1.4
			c-8.3-4.9-14-15.9-15.4-24.2c-3.7-22.7-17.7-39.3-42.6-50.9c-8.5-3.9-12.5-11-11.8-20.8c0.6-9.3-0.7-17.7-3.9-25.1
			c-5.3-12.1-27.2-43.9-51-39.3c-8.2,1.6-18.7,2.4-25.7-3.1c-1.9-1.5-4.5-7.5-4.2-13.5c0.1-3.1,1-4.8,1.5-5.1c1.2-0.8,3.5-1.4,5.8-2
			c8.4-2.2,14.8-5.9,20.5-12.6c2.4-2.8,3.2-3.6,4.5-3.9c21-4.5,42.8,20,51.5,38.8c4.5,9.6,12.1,16,18.8,21.7c1.6,1.3,3,2.4,4.4,3.5
			c2.7,2.1,5.3,4,6.6,6.1c2.1,3.1,2.3,8.5,2.6,14.1c0.4,7.8,0.8,16.7,6,24.6c13.5,20.2,20.5,37.1,28.8,58.8c2.4,6.2,6,12.4,9.5,18.4
			C310.7,337.7,315.1,345.3,315.9,349z"/>
	</g>
	<path style="clip-path:url(#SVGID_00000012471956204254236620000007468573966808166804_);fill:#FFF062;" d="M541.5,1694.7
		c-6.4-21.3-16.9-39.9-31.3-55.1l-1.2-1.3l4.9-6.8c0.5-0.7,1-1.3,1.6-2l0.3-0.4c3.1-3.8,7.3-9.1,9.4-16.2c3.7-13-1.3-26.8-13.2-37
		c-2.6-2.2-5.4-4.1-8.3-5.8c-9-5.1-17.8-6.4-26.2-3.9c-3.9,1.2-7.4,3-10.8,5.8l-2.5,2l-0.8-3.1c-0.8-3-2.1-5.7-4-8.1
		c-8.4-11.1-24.1-11.6-29.2-11.8c-3.1-0.1-6.1,0.3-8.9,1.1c-7.3,2.2-12.6,6.9-15.8,14.2l-1.4,3l-2.2-2.5c-8.6-10.1-22.2-10.5-32-7.6
		c-2.5,0.8-5.1,1.8-7.8,3c-12.3,5.8-18.3,15.3-17.9,28l0.1,3.6l-3.2-1.6c-5.4-2.8-11.5-3.3-17.4-1.6c-4.5,1.3-7.7,3.7-9.5,5
		c-3.4,2.5-6.5,5.6-9.2,9.2c-4.3,5.9-6.6,12.6-6.5,18.9c0.2,9.2,5.7,15.8,11.5,22.8c3.7,4.5,7.6,9.1,10,14.5l3.2,7l-0.2,0.8
		c-1,3.2-1.8,6.3-2.5,9.4c-10,46,6.3,93.9,43.6,128.3c30.1,27.7,79.3,50,121.5,37.4c12.4-3.7,23.5-10.2,33-19.3
		c12.5-12,21.2-28.5,25.9-49.1C550.3,1749.3,549.3,1720.7,541.5,1694.7z M321.4,1631.5c-3.9-4.4-6.2-8.7-1.3-15.4
		c1.6-2.2,3.4-3.9,5.1-5.1c2.1-1.5,4.6-3.3,7.2-1.8c5.5,3.1,9.9,10.1,15,14c1.6,1.2,3.2,2.3,4.9,3.2c-2.1,4.2-5,8.8-8.2,14.1
		c-2.3,3.8-4.7,8-7,12.7c-2.5-5.4-5.8-10.2-9.1-14.4C325.9,1636.1,323.4,1633.8,321.4,1631.5z M525.8,1771.2
		c-3.3,14.6-9.6,29.1-20.6,39.6c-37,35.5-96.2,11.4-128.5-18.3c-30.6-28.2-46.9-68.8-37.9-110.3c3.8-17.4,11.3-29.4,17.9-40.3
		c8.5-14,13.4-26.8,8-43.1c-2.8-8.5-3.9-15.1,5.3-19.4c5.8-2.8,14.8-5.5,18.5,1.8c3,5.9,5.7,12.5,12.4,14.9c7.6,2.8,15-2.3,18-9.2
		c2.9-6.5,1-17.2,10.3-16.9c4.8,0.2,17.2,1,15.5,8.3c-0.7,2.7-1.3,5.4-1.8,8.2c-1.3,6.8-1.1,13.6,2.7,19.2
		c-35.6,58.4-24.3,105.2-23.7,107.5c1,3.8,4.4,6.3,8.2,6.3c0.7,0,1.4-0.1,2.1-0.3c4.5-1.1,7.2-5.7,6.1-10.2c0-0.2-3.7-15.2,0.2-38.2
		c3.5-20.7,13.9-52.3,43.7-86.1c3.3-1.2,7.1-0.8,12,2c1.8,1,3.6,2.3,5.3,3.7c5.1,4.4,9.2,10.6,7.2,17.4c-1.3,4.7-5.6,8.8-8.4,12.7
		c-0.8,1.1-1.7,2.3-2.5,3.4c-21.9,21.6-21.6,46.9-21.6,48c0.1,4.6,3.9,8.3,8.4,8.3c0.1,0,0.1,0,0.2,0c4.7-0.1,8.4-4,8.3-8.6
		c0-0.1-0.1-8.6,4.8-19.1c13.1,13.8,21.9,30.3,27.2,47.7C530.5,1724.1,530.7,1749.7,525.8,1771.2z"/>
	<path style="clip-path:url(#SVGID_00000012471956204254236620000007468573966808166804_);fill:#C8E8FA;" d="M9.8,2561.6
		c-19.3,0-23.8-24.7-25.8-35.2c-0.3-1.6-0.5-2.8-0.7-3.7l-0.1-0.6l-9.2-54.3l-0.1-0.5c-1.4-11-4-24.8-12.2-34.4
		c-16-16.8-30.7-45.7-38.5-75.6c-5.3-20.1-11.8-57.8,3.6-84.8c13.3-23.3,36.7-36.2,65.6-36.2c9.2,0,18.8,1.3,28.7,3.9
		c8.7,2.3,17.7,3.7,26.7,4.2H48c9-0.5,17.9-1.9,26.7-4.2c9.8-2.6,19.5-3.9,28.7-3.9c29,0,52.3,12.9,65.6,36.2
		c15.4,27,8.9,64.7,3.6,84.8c-7.8,29.9-22.6,58.8-38.4,75.5c-8.3,9.7-10.9,23.6-12.3,34.6l-0.1,0.5l-9.2,54.3l-0.1,0.6
		c-0.2,0.9-0.4,2-0.6,3.2l-0.1,0.5c-2,10.5-6.5,35.2-25.8,35.2c-1.3,0-2.6-0.1-3.9-0.3c-8.3-1.4-15.3-7.9-18.6-17.5
		c-4.9-14.1-6.7-28.7-8.4-42.9c-1.2-9.8-2.3-19.1-4.4-28l-5.6,0c-2.1,8.9-3.2,18.1-4.3,27.9c-1.7,14.2-3.5,28.9-8.4,43
		c-3.3,9.6-10.3,16.2-18.6,17.5C12.3,2561.5,11,2561.6,9.8,2561.6z M69.1,2454.5l1.2,2.9c4.3,13.5,6,27.3,7.6,40.6
		c1.2,10.2,2.4,19.8,4.6,28.9l5.6-0.1c0.3-1.4,0.6-2.9,0.9-4.7c0.3-1.6,0.6-3.1,0.8-4.3l9.1-53.7c1.8-14.3,5.5-32.3,17.8-46.6
		c0.1-0.1,0.3-0.3,0.4-0.4c13.6-14.2,26.3-39.5,33.1-66.2c7.2-28.4,6.7-52.8-1.4-66.9c-9.3-16.3-24.6-24.5-45.5-24.5
		c-5.6,0-11.5,0.6-17.6,1.8l-7.1,1.4l6.1,3.8c2.1,1.3,4.1,2.6,6,4c2.5,1.7,4.2,4.4,4.8,7.4c0.6,3-0.1,6.1-1.9,8.6
		c-2.2,3.1-5.7,5-9.5,5c-2.3,0-4.6-0.7-6.5-2c-8.1-5.6-18.7-11.4-28.8-15.9l-1.2-0.5l-1.2,0.5c-10.2,4.5-20.7,10.3-28.8,15.9
		c-1.9,1.3-4.2,2-6.5,2c-3.8,0-7.3-1.9-9.5-5c-1.7-2.5-2.4-5.6-1.9-8.6c0.6-3,2.3-5.7,4.8-7.4c1.9-1.3,3.9-2.7,6-4l6.1-3.8l-7.1-1.4
		c-6-1.2-11.9-1.8-17.6-1.8c-20.9,0-36.2,8.3-45.5,24.5c-8.1,14.2-8.6,38.6-1.4,66.9c6.8,26.7,19.5,52,33.1,66.2
		c0.1,0.1,0.3,0.3,0.4,0.4c12.4,14.3,16,32.5,17.9,46.7l9.1,53.8c0.2,1.1,0.5,2.6,0.8,4.2c0.3,1.7,0.6,3.3,0.9,4.6l5.6,0.1
		c2.2-9.1,3.4-18.7,4.6-28.9c1.6-13.3,3.3-27.1,7.5-40.5c3.2-10.1,12-16.6,22.5-16.6C57.3,2440.9,65.4,2446.2,69.1,2454.5
		L69.1,2454.5z"/>
	<g style="clip-path:url(#SVGID_00000012471956204254236620000007468573966808166804_);">
		<g>
			<path class="st2" d="M143.1,1025.9v116.8l-8.6,5.6c-8.6-35.8-27.8-67.6-63.9-67.6c-0.3,0-0.5,0-0.8,0
				c-65.4,1-114,75.3-133.6,130.1c-33.1,92.9-67.6,229.6,19.6,228.1c70.6-1.2,175.8-21.1,184.8-106.9c3.5-33.7-5.6-67.3-2.8-100.9
				c16.4-8.3,30.8-17.2,40.8-23.8c10,6.6,24.4,15.5,40.8,23.8c2.8,33.6-6.3,67.3-2.8,100.9c9,85.8,114.1,105.7,184.8,106.9
				c87.3,1.5,52.8-135.1,19.6-228.1c-19.5-54.8-68.2-129.1-133.6-130.1c-0.3,0-0.5,0-0.8,0c-36.1-0.1-55.3,31.7-63.9,67.6l-8.6-5.6
				v-116.8h-27.1v131l6.5,4.6c16.6,11.7,58.4,38.9,96.2,46.9l-6.6,17.6c-37.7-7.2-79.4-34.1-95.9-45.5l-8.7-6l-8.7,6
				c-16.5,11.4-58.2,38.3-95.9,45.5l-6.6-17.6c37.8-7.9,79.6-35.2,96.2-46.9l6.5-4.6v-131H143.1z"/>
		</g>
	</g>
</g>
<path class="st1" d="M361.3,771.5c-7.2,0-13.1-5.1-13.1-11.3s5.9-11.3,13.1-11.3h203.8c4.4,0,8-2.7,8-6c0-3.3-3.6-6-8-6H439.3
	c-18.8,0-34.1-12.9-34.1-28.7c0-15.8,15.3-28.7,34.1-28.7h125.9c4.4,0,8-2.7,8-6s-3.6-6-8-6H446.7c-22.9,0-41.5-15.6-41.5-34.8
	v-11.9c0-6.3,5.9-11.3,13.1-11.3c7.2,0,13.1,5.1,13.1,11.3v11.9c0,6.7,6.9,12.1,15.4,12.1h118.5c18.8,0,34.1,12.9,34.1,28.7
	S584,702,565.1,702H439.3c-4.4,0-8,2.7-8,6c0,3.3,3.6,6,8,6h125.9c18.8,0,34.1,12.9,34.1,28.7c0,15.8-15.3,28.7-34.1,28.7H361.3z"/>
<path class="st5" d="M478.9,989.4l-2.5-6.8l-0.5-1.6c-0.7-2.2-1.7-5-2.9-8.5c-1.6-4.9-4-12.3-6.1-20.2l-1.1-3.9l-3.1-2.7
	c-9.2-8-14.4-18.7-14.4-29.4c0-1.6,0.1-3.3,0.4-5.1l0.9-5.1l-2.8-4.4c-3.4-5.4-5.2-11.4-5.2-17.4c0-4.8,1.2-9.6,3.6-14.1l2.9-5.6
	l-2.4-5.8c-2-4.8-3-9.6-3-14.4c0-24.1,23-44.6,52.4-46.7l2.6-0.2l3,0c6,0.1,11.9,0.9,17.7,2.6l6.3,1.8l5.3-3.8
	c10-7.1,22.7-11.1,35.7-11.1c4.1,0,8.3,0.4,12.2,1.1l7.7,1.5l5.1-5.9c2.5-2.9,5.5-5.6,8.9-7.9l8.5-5.7l-3.3-9.7
	c-3.4-10.3-6.3-29.8,13.2-44.7l7.1-5.4l-2.2-8.7c-0.7-2.7-1-5.5-1-8.2c0-2.9,0.5-5.9,1.4-9.1l0.5-1.8v-0.3l0.3-0.8
	c1.3-3.5,3.3-7,5.8-10.2l5-6.2l-3.1-7.4c-1.9-4.6-2.9-9.4-2.9-14.1l0-1c0-1,0.1-2,0.2-3.1l1.1-9.6l-8.7-4.2
	c-1.6-0.8-3.2-1.6-4.8-2.6l-6.4-3.8l-6.6,3.4c-9.2,4.7-19.7,7.1-30.4,7.1c-6.7,0-13.4-1-19.8-2.9c-1.7-0.5-3.3-1.1-5-1.8l-5.7-2.3
	l-5.5,2.8c-9.2,4.7-19.8,7.1-30.6,7.1c-0.7,0-1.5,0-2.3,0c-11.9-0.4-23.2-3.7-32.8-9.6l-6.1-3.7l-6.5,2.9
	c-8.6,3.8-18.3,5.9-28.1,5.9c-0.8,0-1.5,0-2.3,0c-5.5-0.2-11-1-16.4-2.6l-6.3-1.8l-5.3,3.9c-1,0.7-2.1,1.5-3.1,2.1l-7.1,4.5l0.9,8.4
	c0.2,1.4,0.2,2.9,0.2,4.2c0,6.7-1.7,13.2-5.1,19.3l-4.4,7.9l5.7,7.1c4.4,5.4,7,11.4,8,17.8c0.2,1.8,0.4,3.4,0.4,5.1
	c0,7.9-3,16-8.4,22.8l-2.8,3.5l-0.1,4.5c-0.6,21.2-19.6,39.4-45.3,43.2l-1.6,0.2l0,0l-1.2,0.2c-2.4,0.2-4.8,0.4-7.1,0.4
	c-27.7,0-51.2-17-54.6-39.6c-0.3-1.8-0.4-3.7-0.4-5.4c0-3.5,0.5-7,1.6-10.5l2.5-7.9l-6-5.8c-7.1-6.9-11.5-15.1-12.8-24
	c-0.3-1.8-0.4-3.7-0.4-5.5c0-6.1,1.6-12.4,4.6-18.1l3.5-6.6l-3.7-6.5c-3.1-5.5-4.9-11.3-5.4-17.3c-0.1-0.9-0.1-1.9-0.1-2.9
	c0-13,6.7-25.8,18.5-35l6.8-5.3l-2-8.4c-0.7-3-1.1-6-1.1-8.9c0-4.3,0.7-8.5,2-12.7c7.1-22,31.4-37.4,59-37.4
	c5.6,0,11.2,0.6,16.7,1.9l5.2,1.1l4.3-2.3c10.2-5.4,22-8.2,34-8.2c7.4,0,14.7,1.1,21.7,3.2c2.3,0.7,4.5,1.5,6.7,2.5l5.5,2.4l5.5-2.5
	c8.5-3.9,18.2-5.9,27.9-5.9l0.6,0c11.1,0.1,21.9,2.8,31.3,7.9l6.4,3.5l6.4-3.5c9.5-5.1,20.5-7.9,31.8-7.9l2.3,0
	c8.4,0.3,16.5,2,24,5.1l5.7,2.4l5.5-2.7c3.5-1.7,7.3-3.2,11.1-4.2c6-1.7,12.2-2.5,18.5-2.5l1.2,0c10.3,0,21.1,2.7,30.4,7.6l5.1,2.6
	l5.4-1.8c7.3-2.4,14.9-3.7,22.6-3.8l2.1,0c15.9,0.2,31,5.3,42.6,14.4l1.3,1l0.5,0.4c0.4,0.3,1.6,1.4,3.2,3.1
	c1.5,1.6,3.8,4.2,6.2,7.7c5.9,8.6,8.8,17.5,8.9,26.5c0,2.3-0.2,4.7-0.7,7.1l-1.3,7l5,5.1c9.3,9.4,14.3,20.7,14.3,32.7l0,1
	c-0.2,7.5-2.4,15.1-6.6,22l-3.3,5.4l2.1,6c1.4,4,2.1,8,2.1,11.9l0,1.6c-0.2,5.5-1.7,10.9-4.5,16.2l-3.4,6.3l3.3,6.3
	c3,5.7,4.6,11.9,4.6,17.8c0,4.5-0.8,8.9-2.4,13.2c-2.6,7-7.1,13.2-13.3,18.5l-7.4,6.2l3.5,9c1.7,4.3,2.6,8.8,2.6,13.1
	c0,4.5-0.8,8.9-2.4,13.2c-3.7,10.1-11.4,18.6-22.1,24.5l-6.6,3.7l-0.3,7.6c-0.5,11.2-5,19.8-8.6,25.1c-3.1,4.5-6.3,7.6-8.4,9.4
	c-0.6,0.5-1.1,0.9-1.2,1l-0.6,0.4c-9.2,5.5-19.6,8.4-30.7,8.4l-5.8,0l-4,4.3c-2.8,3-5.9,5.6-9.4,7.8c-9.1,5.7-19.9,8.7-31.3,8.7
	c-7.1,0-14-1.2-20.5-3.5l-7.1-2.6l-5.9,4.7c-3.2,2.6-6.7,4.8-10.5,6.6l-9.4,4.5l2,10.2c0.4,2.2,0.6,4.4,0.6,6.5
	c0,8.4-3.3,17-9.3,24.2l-2.2,2.6l-9.7,46.3H478.9z"/>
<path class="st1" d="M358.3,675.7c-3.9,2.3-8.5,3.9-13.6,5.4c0,0,2.9,7.3,2.9,7.3c5.6-1.6,10.9-3.5,15.8-6.2c1.1-0.6,2.2-1.3,3.3-2
	c7.3,4.8,12.4,11.9,13.7,20.3c0.2,1.3,0.3,2.6,0.3,3.9c0,8.1-3.8,15.7-10.2,21.3l-2,1.8l0.5,2.5c0.2,1.4,0.3,2.8,0.3,4.2
	c0,16.6-14.5,31-34.4,33.1c-1.7,0.2-3.4,0.3-5,0.3c-19.5,0-36.4-12.4-39-29.2c-0.2-1.4-0.3-2.8-0.3-4.2c0-6.4,2.2-12.5,6-17.7l3-4.1
	c0,0-4.9-2.5-4.9-2.5c-20-10.5-25.2-35-10.3-50.7l2.9-3.1l-2.9-3c-5.7-5.9-9.3-13.2-9.9-21.4c-0.1-0.8-0.1-1.5-0.1-2.3
	c0-13.6,8.8-25.7,22-32.2c1.5,1.9,3,3.6,4.5,5.2c2.7,2.7,5.3,4.8,7.7,6.4c1.2,0.8,2.3,1.5,3.3,2c1,0.5,2,1,3,1.3
	c0,0,2.9-7.3,2.9-7.3l-0.3-0.1c-0.8-0.3-2.5-1.3-4.3-2.7c-3-2.2-6.6-5.5-9.7-9.6l-1.8-3.1c-3.2-5.4-5-11.4-5-17.6
	c0-3.3,0.5-6.7,1.6-10.1c5.5-17.1,23.8-28.3,43.7-28.3c4,0,8,0.4,12,1.4c3.1,0.7,6,1.7,8.8,2.9l3.5,1.5c0,0,2.9-2.3,2.9-2.3
	c17.6-13.9,45.2-14.5,63.7-1.5l3.8,2.7l3.7-2.9c7.6-6.1,17.8-9.8,29-9.8c8.9,0,17.1,2.3,23.9,6.4c4.9,2.8,8.8,6.8,11.9,10.8
	c3.1,4.1,5.4,8.1,7.4,11.2c0,0,7.9-3.8,7.9-3.8c-1.7-2.5-4.1-6.8-7.5-11.2c-1.4-1.8,13.8-9.5,15.5-10.2c15.1-5.8,33.5-3.3,45.8,6.2
	l4.1,3.1c0,0,3.8-3.3,3.8-3.3c16.7-14.7,45.1-14.6,61.8,0l3.3,2.9l3.9-2.3c8.2-4.7,17.6-7.1,27.1-7.1c12.2,0,24.4,3.9,33.8,11.8
	c18.1,15.2,18.2,39.5,2.2,55.8l6.4,5.4c0.1-0.1,3.1-2.7,6.4-6.6c0.6-0.7,1.2-1.6,1.8-2.4c9,7.4,14.6,17.8,14.6,29.3l0,0.9
	c-0.2,9.1-3.9,17.4-10,24.1l-2.2,2.5l1.7,2.7c3.1,4.9,4.8,10.4,4.8,16.2l0,1.1c-0.2,6.5-2.7,12.3-6.5,17.4c-1.7-1.2-3.4-2.3-5.1-3.2
	c-6.5-3.5-12.1-4.8-12.4-4.9c0,0-2.4,7.4-2.4,7.4c0.3,0.1,5.2,1.3,10.3,4.2c27,15.2,16.3,51.3-12.4,58.9l-4.6,1.2
	c5.2,2.9,10.5,7.4,12.9,14l0.4-0.1c1.7,3.9,2.7,8,2.7,12.2c0,3.4-0.6,6.9-1.9,10.3c-4.1,11.2-14.3,19.2-26.6,22.5l-4.8,1.3l0.9,4.2
	c0.7,3.1,1,6.1,1,8.8c0,9.6-3.5,16.9-7,21.9c-1.7,2.5-3.5,4.4-4.7,5.6c-0.6,0.6-1.1,1.1-1.5,1.4l-0.2,0.1
	c-6.4,3.8-13.6,5.6-20.8,5.6c-3.4,0-6.9-0.4-10.2-1.2l-4.9-1.2l-1.9,4c-2.5,5.1-6.5,9.7-12.1,13.2c-6.5,4-13.9,5.9-21.3,5.9
	c-9.9,0-19.6-3.4-26.6-9.9l-6-5.5l-3.4,6.9c-5.6,11.3-18.5,19.4-33.7,20.1l-10.6,0.5l6.3,7.2c4.6,5.3,7.4,11.8,7.4,18.9
	c0,8.1-3.6,15.5-9.5,21.1l-1.1,1l-8.2,39.3l-28.8,0c-2.2-6.3-7-20.5-10.2-33.5l-0.4-1.7l-1.6-1.1c-8.9-5.8-14.6-14.9-14.6-25.1
	c0-3.4,0.7-6.8,1.9-9.9l1-2.6l-2-2.1c-4.7-4.7-7.5-10.8-7.5-17.5c0-4.4,1.3-8.5,3.5-12.1c3.9,3.9,8,7,11.8,8.9c0,0,4.7-6.6,4.7-6.6
	c0,0-5.4-3.5-6.9-4.8c-7.5-6.4-11.9-16.2-11.9-25.3c0-9.8,4.6-18.6,12.2-25c7.5-6.4,17.9-10.4,29.4-10.4c9.1,0,17.4,2.5,24.3,6.7
	l5,3.1l3.2-4.4c7.1-9.9,19.8-15.8,33.2-15.8c4.4,0,8.8,0.6,13.2,2l0.2,0.1c3,0.9,5.8,2.2,8.3,3.7l-0.2,1.2
	c-0.6,4.7-0.7,9.5-1.2,13.3l9,0.8c0.4-3.2,0.6-6.6,0.9-10l1.6-7.5c1.6-7.2,6.2-13.8,13.6-18.4c4-2.5,8.3-4.1,12.8-5l8.4-1.6
	c0,0-34.6-44.1,17.1-60.1c0,0-5-5.9-5-5.9c-11-12.9-8-31.5,6.6-41.3l4.2-2.8c0,0-3.1-3.7-3.1-3.7c-11.6-13.9-7.2-29.7,5.9-41.2
	c-0.4-0.6-5.5-6.1-5.5-6.1c-0.1,0.1-2.6,1.8-5.7,4.5l-3.9-0.5c-10.6-1.5-19.7-6.5-25.7-13.6c1-1.4,2-2.8,2.8-4.1
	c3.2-5.1,4.7-9.3,4.8-9.5c0,0-8.7-2.3-8.7-2.2c-0.3,0.7-1.8,4.4-4.5,8.6c0,0-4.9,5.2-4.9,5.2c-14.8,15.9-43,18.1-60.9,5l-4.1-3
	c0,0-3.7,3.3-3.7,3.3c-18.5,16.4-51.1,14.3-66.5-4.3l-4-4.8c0,0-4.8,4.2-4.8,4.2c-14.7,13.1-39.1,15.2-56.6,5l-2.8-1.7
	c-2.4-1.6-4.7-3.5-6.6-5.3c-1.8-1.7-3.3-3.2-4.3-4.4c-0.5-0.6-0.9-1-1.2-1.3c0,0-0.3-0.3-0.4-0.4l-7.4,4.4c0.1,0.1,2.7,3.2,6.7,6.9
	c1.8,1.7,3.9,3.5,6.3,5.2c-5.2,5.9-12.3,10.5-20.5,13.1l-5.6,1.7l2.3,4.7C372.5,633,383.7,661,358.3,675.7z"/>
<path class="st5" d="M311.6,614.6c-1.3-0.4-2.5-0.9-3.5-1.4c-1.1-0.6-2.3-1.3-3.5-2.1c-2.7-1.9-5.5-4.2-8-6.7
	c-1.6-1.6-3.1-3.4-4.7-5.4l-0.7-0.9l7.8-11.7l3.6,6c3.5,4.6,7.2,7.7,9.2,9.1c1.8,1.4,3.3,2.2,3.9,2.4l1.7,0.7l-0.3,1.7l-3.5,9
	L311.6,614.6z"/>
<path class="st5" d="M393.6,616.6c-2.2-1.6-4.4-3.4-6.4-5.3c-3.6-3.4-6.1-6.3-6.8-7.1l-1.3-1.5l1.8-1.1l9.1-5.4c0,0,2.2,2.6,2.7,3.1
	c1,1.1,2.5,2.6,4.2,4.3c2,1.8,4.1,3.6,6.3,5.1l6,3.5l-14.7,5.1L393.6,616.6z"/>
<path class="st5" d="M344.6,681l2-0.6c5.7-1.6,9.8-3.2,13.1-5.1l1.1-0.6l12,6.4l-2.4,1.6c-1.1,0.7-2.2,1.5-3.4,2.1
	c-4.5,2.5-9.7,4.6-16.3,6.4l-2,0.6L344.6,681z"/>
<path class="st5" d="M511.6,552c-0.7-1-1.4-2.1-2.1-3.3c-1.5-2.4-3.2-5.1-5.2-7.8c-3.5-4.6-7.2-8-11.3-10.3l1.9-3.2l20.4,7.2
	l0.4,0.5c2.3,3.1,4.2,6.1,5.7,8.5c0.7,1.1,1.3,2,1.8,2.8l1.1,1.6l-11.5,5.6L511.6,552z"/>
<path class="st5" d="M604.2,608l7.1-7.6c2.6-4.1,4-7.9,4.1-8l0.6-1.7l2,0.4l10.7,2.8l-0.6,1.8c-0.1,0.2-1.6,4.5-4.9,9.8
	c-0.9,1.4-1.8,2.8-2.9,4.2l-0.8,1L604.2,608z"/>
<path class="st5" d="M722.3,602l-7.8-6.6l1.2-1.3c2.9-3.6,7.8-9.8,8.5-11.6l1.5-3.7l8.7,12.8l-0.7,0.9c-0.6,0.9-1.3,1.7-1.9,2.5
	c-3,3.6-5.8,6.1-6.6,6.8l-1.5,1.3L722.3,602z"/>
<path class="st5" d="M711.8,685.4l2.8-8.9l0.5-1.7l2,0.4c0.1,0,5.9,1.3,13,5.1c1.7,0.9,3.5,2,5.3,3.3l2.6,1.9l-13.6,5.1l-0.9-0.5
	C718.4,687.4,711.8,685.4,711.8,685.4z"/>
<path class="st5" d="M581.8,818.6l0.2-1.8c0.2-1.8,0.4-3.8,0.5-5.9c0.2-2.4,0.4-4.9,0.7-7.4l0.3-2.4l14.8-3.4l-2.3,10.4l-0.3,3.3
	c-0.2,2.2-0.4,4.4-0.6,6.5l-0.2,1.8L581.8,818.6z"/>
<path class="st5" d="M477.2,874.6l-5.8,9.9l-1.8-0.9c-4.1-2.1-8.3-5.3-12.3-9.2l-2.1-2.1l13.5-3.9L477.2,874.6z"/>
</svg>
