<?xml version="1.0" encoding="utf-8"?>
<!-- Generator: Adobe Illustrator 27.7.0, SVG Export Plug-In . SVG Version: 6.00 Build 0)  -->
<svg version="1.1" id="main" xmlns="http://www.w3.org/2000/svg" xmlns:xlink="http://www.w3.org/1999/xlink" x="0px" y="0px"
	 viewBox="0 0 130 136" style="enable-background:new 0 0 130 136;" xml:space="preserve">
<style type="text/css">
	.st0{fill:#62B4FA;}
	.st1{fill:#3F283C;}
	.st2{fill:none;stroke:#62B4FA;stroke-width:4.252;stroke-linecap:round;stroke-linejoin:round;stroke-miterlimit:10;}
</style>
<g>
	<g>
		<g>
			<path class="st0" d="M84.6,124.4c-5.5,3.4-11.6,5.1-19.4,5.1c-24.5,0-40.3-18-40.3-45.9c0-27.4,15.3-45.5,40.2-45.5
				c24.4,0,40,17.9,40,45.5c0,14.2-4.7,25.5-11.1,32.8l7.4,7.4c1,1,1.4,2.2,1.4,3.4c0,1.5-0.8,3.2-2.1,4.5c-1.3,1.3-3.1,2.3-4.7,2.3
				c-1.1,0-2.2-0.4-3.1-1.3L84.6,124.4z M83.4,106c4.1-5.2,6.1-13,6.1-23c0-18.9-9.1-31.5-24.3-31.5c-15.4,0-24.6,12.5-24.6,32.1
				c0,19.8,9.5,32.4,24.6,32.4c3.6,0,6.6-0.7,9.3-2l-6.5-6.5c-1-0.9-1.4-2-1.4-3.1c0-1.6,0.9-3.3,2.4-4.7c1.3-1.2,3-2.1,4.6-2.1
				c1.2,0,2.3,0.4,3.3,1.4L83.4,106z"/>
			<path class="st1" d="M95.9,136c-1.8,0-3.4-0.7-4.5-1.9l-7.1-7c-5.8,3.2-11.9,4.6-19,4.6c-25.7,0-42.4-18.8-42.4-48
				c0-28.9,16.6-47.6,42.3-47.6c25.6,0,42.1,18.7,42.1,47.6c0,12.5-3.8,24.4-10.3,32.6l6,6c1.3,1.3,2,3,2,4.8c0,2.2-1,4.2-2.7,5.9
				C100.3,135,98.1,136,95.9,136z M84.6,122.3c0.5,0,1,0.2,1.4,0.6l8.3,8.2c0.5,0.5,1,0.7,1.6,0.7c1,0,2.3-0.6,3.3-1.6
				c0.9-0.9,1.4-2,1.4-3c0-0.8-0.2-1.3-0.8-1.9l-7.4-7.4c-0.8-0.8-0.8-2-0.1-2.9c6.7-7.5,10.6-18.9,10.6-31.3
				c0-13.1-3.6-24-10.3-31.7C85.9,44.4,76.4,40.3,65,40.3s-21.1,4-27.8,11.7S26.9,70.6,26.9,83.6c0,13.2,3.6,24.3,10.4,32.1
				c6.7,7.7,16.4,11.8,27.8,11.8c7.2,0,12.8-1.5,18.2-4.8C83.8,122.5,84.2,122.3,84.6,122.3z M65.1,118.2
				c-16.2,0-26.7-13.5-26.7-34.4c0-21.2,10.2-34.3,26.7-34.3c16.1,0,26.4,13.2,26.4,33.5c0,10.4-2.2,18.6-6.5,24.3
				c-0.4,0.5-0.9,0.8-1.6,0.8c-0.6,0-1.1-0.2-1.5-0.6l-6.8-7c-0.5-0.5-1.1-0.7-1.8-0.7c-1,0-2.1,0.5-3.1,1.5
				c-1.1,1.1-1.7,2.2-1.7,3.3c0,0.6,0.3,1.1,0.7,1.5l6.7,6.7c0.5,0.5,0.7,1.1,0.5,1.8c-0.1,0.6-0.5,1.1-1.1,1.5
				C72.3,117.5,69,118.2,65.1,118.2z M65.1,53.7c-14.1,0-22.6,11.2-22.6,30c0,18.7,8.6,30.3,22.6,30.3c2,0,3.8-0.2,5.5-0.6l-4.2-4.2
				c-1.3-1.2-2-2.8-2-4.5c0-2.1,1-4.3,3-6.3l0.1-0.1h0.1c1.8-1.6,3.9-2.5,5.8-2.5s3.5,0.7,4.7,2l5,5.2c2.9-4.8,4.3-11.4,4.3-19.7
				C87.4,65,78.8,53.7,65.1,53.7z"/>
		</g>
	</g>
	<path class="st1" d="M30.9,25.4c-2.6,0-4.2-1.5-4.2-4.1v-3.2c0-2.6,1.4-4.1,4.2-4.1h9.9l-0.1-1.4H28.4c-0.5,0-1.5-0.2-1.5-1.7
		c0-1.1,0.5-1.6,1.5-1.6h11.9l-0.1-1.4H28.4c-0.5,0-1.5-0.2-1.5-1.7c0-1.5,1-1.8,1.3-1.8h11.5l-0.1-1.2c0-0.4,0.1-0.8,0.3-1
		c0.4-0.4,1.1-0.4,1.4-0.4c1.1,0,1.6,0.4,1.8,1.3l0.1,1.2h4.5c1.3,0,1.5,0.9,1.5,1.7v0.1c0,1-0.5,1.5-1.5,1.5h-4l0.1,1.4h3.7
		c0.5,0,1.5,0.2,1.5,1.7c0,1.1-0.5,1.6-1.5,1.6h-3.4l0.2,2c0,0.1,0,0.3,0,0.4c0,1.5-1,2.4-2.6,2.4H31.2c-1,0-1.1,0.3-1.1,1v2.3
		c0,0.7,0.1,1,1.1,1h14.8c1.5,0,1.5,1.2,1.5,1.9c0,1.4-0.8,1.8-1.5,1.8H30.9V25.4z"/>
	<path class="st1" d="M61.6,25.4c-3.1,0-5-1.9-5-5v-5.1h-1.8c-0.7,0-1.5-0.3-1.5-1.9c0-1.2,0.5-1.9,1.5-1.9h1.8V8.2h-1.8
		c-0.7,0-1.5-0.3-1.5-1.9c0-1.2,0.5-1.9,1.5-1.9h1.8v-1c0-1,0.7-1.5,1.9-1.5c0.4,0,1.9,0,1.9,1.5v1.2H74c0.7,0,1.5,0.3,1.5,1.9
		S74.7,8.4,74,8.4H60.3V12h13.6c0.7,0,1.5,0.3,1.5,1.9s-0.9,1.9-1.5,1.9H60.3v4.5c0,1.3,0.5,1.9,1.9,1.9h7.4c0.9,0,0.9,0,1.3-0.4
		l2.8-3.1c0.2-0.2,0.7-0.6,1.1-0.6c0.8,0,2,1,2,2c0,0.4-0.2,0.8-0.4,1l-3.1,3.4c-1,1.2-1.8,1.3-3.3,1.3h-8.2V25.4z"/>
	<path class="st1" d="M94.7,25.4c-2.3,0-3.7-1.3-3.7-3.4v-7.8c0-0.9-0.1-0.9-0.8-0.9h-3.5l-3.3,11c-0.1,0.2-0.3,1-1.2,1
		s-2.3-0.4-2.3-1.5c0-0.2,0-0.4,0.1-0.7l3.3-10.8c0.1-0.3,0.2-0.7,0.2-0.9V3.5C83.5,2,84.8,2,85.2,2C86.4,2.1,87,2.5,87,3.5v6.2h4.1
		c2.3,0,3.5,1.3,3.5,3.6v7.6c0,0.8,0.1,0.9,1.1,0.9h3c0.8,0,0.9-0.1,0.9-0.9v-9.4c0-1.5,1.3-1.5,1.9-1.5c0.4,0,1.9,0,1.9,1.6v10.2
		c0,2.3-1.3,3.6-3.7,3.6h-4.8V25.4z"/>
	<path class="st1" d="M45.1,4c-0.7,0-1.2-0.6-1.2-1.2V1.6c0-0.8,0.5-1.2,1.2-1.2h1.3c0.8,0,1.2,0.5,1.2,1.2v1.2
		c0,0.7-0.6,1.2-1.2,1.2C46.4,4,45.1,4,45.1,4z"/>
	<path class="st1" d="M49.6,4c-0.8,0-1.2-0.6-1.2-1.2V1.6c0-0.7,0.5-1.2,1.2-1.2h1.3c0.7,0,1.2,0.5,1.2,1.2v1.2
		c0,0.7-0.6,1.2-1.2,1.2C50.9,4,49.6,4,49.6,4z"/>
</g>
<g>
	<line class="st2" x1="110.7" y1="28.4" x2="124.7" y2="4.1"/>
	<line class="st2" x1="19.3" y1="28.4" x2="5.3" y2="4.1"/>
</g>
</svg>
